<?xml version="1.0" encoding="utf-8"?>
<!-- Generator: Adobe Illustrator 21.1.0, SVG Export Plug-In . SVG Version: 6.00 Build 0)  -->
<svg version="1.1" id="Calque_1" xmlns="http://www.w3.org/2000/svg" xmlns:xlink="http://www.w3.org/1999/xlink" x="0px" y="0px"
	 viewBox="0 0 432 432" style="enable-background:new 0 0 432 432;" xml:space="preserve">
<style type="text/css">
	.st0{fill:#74696B;}
	.st1{fill:#609176;}
	.st2{fill:#BF7B55;}
	.st3{fill:#B3B3B3;}
	.st4{fill:#1A1A1A;}
	.st5{fill:#59473F;}
	.st6{fill:#C1C3CC;}
	.st7{fill:#E5AA65;}
	.st8{fill:#995F4B;}
	.st9{fill:#A88E6C;}
	.st10{fill:#4F9969;}
	.st11{fill:#8DAF71;}
	.st12{fill:#D66B92;}
	.st13{fill:#86995C;}
	.st14{fill:#E5A18A;}
	.st15{fill:#A67463;}
	.st16{fill:#6B7A7D;}
	.st17{fill:#396650;}
	.st18{fill:#42210B;}
	.st19{fill:#E7AA8D;}
	.st20{fill:#9FAF88;}
	.st21{fill:#808080;}
	.st22{fill:#736357;}
	.st23{fill:#AD8674;}
	.st24{fill:#7E8AA4;}
	.st25{fill:#E0AB65;}
	.st26{fill:#ADBC82;}
	.st27{fill:#534741;}
	.st28{fill:#9F887D;}
	.st29{fill:#BC6753;}
	.st30{fill:#DDBE94;}
	.st31{fill:#333333;}
	.st32{fill:#3D5159;}
	.st33{fill:#754432;}
	.st34{fill:#806D66;}
	.st35{fill:#B59979;}
	.st36{fill:#506E87;}
	.st37{fill:#2A4654;}
	.st38{fill:#B28A7D;}
	.st39{fill:#736E6C;}
	.st40{fill:#998675;}
	.st41{fill:#383850;}
	.st42{fill:#EAAD98;}
	.st43{fill:#86B2CA;}
	.st44{fill:#998B87;}
	.st45{fill:#77939E;}
	.st46{fill:#4D4542;}
	.st47{fill:#816AA0;}
	.st48{fill:#C69C6D;}
	.st49{fill:#337D83;}
	.st50{fill:#CF7051;}
	.st51{fill:#919093;}
	.st52{fill:#E2BE7B;}
	.st53{fill:#D88770;}
	.st54{fill:#9A847A;}
	.st55{fill:#E7D5CD;}
	.st56{fill:#AF9882;}
	.st57{fill:#456353;}
	.st58{fill:#231F20;}
	.st59{fill:#424546;}
	.st60{fill:#B6906F;}
	.st61{fill:#C48837;}
	.st62{fill:#60795D;}
	.st63{fill:#D39D7B;}
	.st64{fill:#DDA2A1;}
	.st65{fill:#7BB4BB;}
	.st66{fill:#BF96B0;}
	.st67{fill:#89587E;}
	.st68{fill:#9EC49A;}
	.st69{fill:#34423C;}
	.st70{fill:#BC9A72;}
	.st71{fill:#E89650;}
	.st72{fill:#607390;}
	.st73{fill:#7E886B;}
	.st74{fill:#DBB588;}
	.st75{fill:#AB9688;}
	.st76{fill:#AF6EA0;}
	.st77{fill:#545A71;}
	.st78{fill:#72A371;}
	.st79{fill:#6E8770;}
	.st80{fill:#9D9F79;}
	.st81{fill:#9C4862;}
	.st82{fill:#445FA5;}
	.st83{fill:#6E967D;}
	.st84{fill:none;}
	.st85{fill:#B03553;}
	.st86{fill:#9A5499;}
	.st87{fill:#CFA5B7;}
	.st88{fill:#894491;}
	.st89{fill:#AE3034;}
	.st90{fill:#EFB156;}
	.st91{fill:#8689A9;}
	.st92{fill:#54A691;}
	.st93{fill:#79C1B6;}
	.st94{fill:#9F5398;}
	.st95{fill:#53A7DB;}
	.st96{fill:#98C355;}
	.st97{fill:#749B80;}
	.st98{fill:#607161;}
	.st99{fill:#97B898;}
	.st100{fill:#366E91;}
	.st101{fill:#D99A70;}
	.st102{fill:#84328A;}
	.st103{fill:#CB7052;}
	.st104{fill:#A8A8A8;}
	.st105{fill:#686C6D;}
	.st106{fill:#70615C;}
	.st107{fill:#5D876B;}
	.st108{fill:#78748A;}
	.st109{fill:#947B76;}
	.st110{fill:#E8A97C;}
	.st111{fill:#879B72;}
	.st112{fill:#B2B8A3;}
	.st113{fill:#7F8966;}
	.st114{fill:#91516B;}
	.st115{fill:#BF8B56;}
	.st116{fill:#8F7982;}
	.st117{fill:#BAA79E;}
	.st118{fill:#7F6D64;}
	.st119{fill:#7D9496;}
	.st120{fill:#8E6D76;}
	.st121{fill:#A54462;}
	.st122{fill:#BF924C;}
	.st123{fill:#713B47;}
	.st124{fill:#580E1D;}
	.st125{fill:#BB7578;}
	.st126{fill:#A54748;}
	.st127{fill:#79895B;}
	.st128{fill:#D3B9C4;}
	.st129{fill:#C1272D;}
	.st130{fill:#709983;}
	.st131{fill:#909B73;}
	.st132{fill:#721037;}
	.st133{fill:#748B96;}
	.st134{fill:#D1B361;}
	.st135{fill:#844A37;}
	.st136{fill:#D1916B;}
	.st137{fill:#56858C;}
	.st138{fill:#C6985C;}
	.st139{fill:#2E485E;}
	.st140{fill:#7C93A3;}
	.st141{fill:#C89698;}
	.st142{fill:#D1A661;}
	.st143{fill:#D18B61;}
	.st144{fill:#7F9BBA;}
	.st145{fill:#D17D61;}
	.st146{fill:#D99882;}
	.st147{fill:#C185A1;}
	.st148{fill:#94AD84;}
	.st149{fill:#CBA89D;}
	.st150{fill:#CCAB8B;}
	.st151{fill:#677B89;}
	.st152{fill:#7E9E6A;}
	.st153{fill:#E59F5A;}
	.st154{fill:#4D6040;}
	.st155{fill:#BA5B42;}
	.st156{fill:#844530;}
	.st157{fill:#BBA677;}
	.st158{fill:#BF7F9F;}
	.st159{fill:#FBB03B;}
	.st160{fill:#B24A58;}
	.st161{fill:#E29D86;}
	.st162{fill:#D89E64;}
	.st163{fill:#BA8B7F;}
	.st164{fill:#BFA37B;}
	.st165{fill:#8E9DBF;}
	.st166{fill:#4D4D4D;}
	.st167{fill:#B28E69;}
	.st168{fill:#7D8DAA;}
	.st169{fill:#48687A;}
	.st170{fill:#629599;}
	.st171{fill:#475E7A;}
	.st172{fill:#1D303F;}
	.st173{fill:#597687;}
	.st174{fill:#6A8955;}
	.st175{fill:#7DAF5A;}
	.st176{fill:#CF789A;}
	.st177{fill:#9391C6;}
	.st178{fill:#C49A6C;}
	.st179{fill:#8ABC9E;}
	.st180{fill:#999999;}
	.st181{fill:#8B4140;}
	.st182{fill:#29404F;}
	.st183{fill:#A05F50;}
	.st184{fill:#C4826C;}
	.st185{fill:#BF8574;}
	.st186{fill:#D39A46;}
	.st187{fill:#9BADCC;}
	.st188{fill:#D48E77;}
	.st189{fill:#D08E78;}
	.st190{fill:#517A5F;}
</style>
<g>
	<path class="st68" d="M158.6,137.7c-0.7-0.3-1.2-0.1-1.8,0.2c-0.9,0.5-1.8,0.8-2.8,1c-0.1-0.4-0.2-0.8-0.3-1.1
		c-0.6-1.8-1.1-3.6-1.9-5.4c-1.7-4.1-4.5-4.9-4.9-5.4c0-0.7,0-1.5,0-2.2c-0.1-0.9-0.7-1.4-1.5-1.4c-0.8,0-1.3,0.5-1.4,1.4
		c0,0.5-0.1,1.1-0.1,1.6c-5.4,0.1-7.5,6.1-9.2,10.7c-4.4-0.8-4.1,1.1-2.8,1.7c0.2,0.1-0.1,0,2.1,0.4c0,0.2,0,0.4,0,0.6
		c-1.8,8-4.6,24.4-7.8,16.8c-2.1-5-1.1-8.2,2.2-36.8c4.7-2.7,3.2-4,0.4-3.3c0.4-5.3,0.9-10.6,1.3-15.7c0.9-0.5,1.7-0.9,2.4-1.3
		c1.1-0.7,0.5-1.9-0.8-1.8c-0.3,0-0.5,0.1-1.6,0.6c0.2-5.6,0.1-11-1-16.4c0.5-0.3,1.1-0.5,1.6-0.8c1-0.5,2-1,3-1.6
		c0.4-0.2,0.7-0.5,0.6-1c-0.1-0.4-0.6-0.8-1.2-0.8c-0.4,0-0.8,0.2-1.1,0.3c-0.8,0.3-1.5,0.7-2.2,1.1c-0.4,0.2-0.8,0.4-1.2,0.6
		c-0.3-0.7-0.5-1.4-0.7-1.9c-1.9-4.2-4.7-7.6-9.3-9.2c0-0.3,0-0.7,0-1.1c0-0.4,0-0.9,0-1.3c0-0.5-0.2-0.9-0.6-1.2
		c-0.9-0.6-2.1-0.2-2.2,0.9c-0.1,1-0.1,2.1-0.2,3c-3.9,1.9-5.7,5.3-7.5,8.9c-0.8-0.1-1.5-0.3-2.2-0.4c-0.5,0-1,0.1-1.4,0.3
		c-0.6,0.3-0.6,0.9-0.1,1.2c0.3,0.2,0.7,0.3,1.1,0.4c0.6,0.2,1.2,0.3,1.7,0.5c-0.7,3.3-1.4,6.4-2.1,9.6c-0.7-0.1-1.4-0.2-2.1-0.2
		c-1.6,0-2.3,1.1-1.3,1.7c0.7,0.4,2.1,0.6,3.3,0.8c-1,7.6-1.2,15.2-1,22.9c-0.8,0.3-1.6,0.6-2.3,1c-2.1,1-2.1,3.1,2.4,1.5
		c1.8,16.2,2.5,21.8,2.9,30.7c0.1,2.8-0.1,5.7-1,8.4c-0.2,0.7-0.6,1.5-1,2.1c-2.4,3.3-7.9-2.7-8.8-12.1c-2.2-24.4-2.4-15.6-3.5-21.1
		c0.3-0.2,1.4-0.7,2.2-1.5c0.3-0.3,0.6-0.8,0.3-1.1c-0.9-1.1-2.2-0.2-3.7,0.6c-3.4-4.3-3.8-4.5-8-5.4c0-0.2-0.1-0.5-0.2-0.7
		c-0.1-0.6-0.2-1.3-0.4-1.9c-0.3-1.1-1.6-1.4-2.4-0.7c-0.8,0.7-0.5,1.4,0,4.1c-3.3,1.8-4.9,4.9-5.9,8.3c-1.5,0.3-3.2,0.5-3,1.6
		c0.2,0.9,1.4,0.7,2.4,0.7c-0.4,3.5-0.4,6.9-0.2,10.3c-0.8,0.3-1.5,0.4-2.1,0.7c-0.4,0.2-0.7,0.6-0.6,1.1c0.2,0.8,1.2,0.6,2.9,0.6
		c1.2,9.5,3.2,24,9.7,31c4.6,5,6,5,5.6,6.2c-0.6,2.1,1,2.4,2.7,1.1c18.9,12.3,11,9.5,14,27.5c-4.9-4.1-4-7.7-5.2-7.9
		c-1.1-0.1-0.2,8.5-1.7,11.5c-0.7-2.5-2.9-16.6-4.7-16.2c-1.2,0.3,0.7,2.4-0.7,14.2c-0.2,1.3-1.5,3.3-2.3,1.7
		c-0.6-1.2,0-0.7-4.5-9.5c-0.5-1-2.4-1.5-2.7,0.4c0,0.1-2.1,16.6,0.7,17.3c0.1,0,27.9,3.8,62.9-0.3c7.3-0.8,5.1-7.9,4.4-15.7
		c-0.2-1.9-0.2-3.8-0.3-5.7c0-0.3-0.1-0.6-0.2-0.9c-0.2-0.3-0.6-0.3-0.8,0c-0.1,0.2-0.2,0.5-0.3,0.7c-4.2,12.5-6.8,14.9-7.8,0.1
		c0-0.7-0.1-1.4-0.2-2.1c0-0.3-0.3-0.6-0.5-0.7c-0.4-0.1-0.6,0.2-0.7,0.5c-0.2,0.4-0.3,0.8-0.4,1.2c-4.9,14-3.9,11.2-4.6,12.8
		c-0.1,0-0.2,0-0.2,0c-0.4-2.4-0.1,0.6-0.7-9.3c0-0.5-0.1-0.9-0.2-1.4c-0.1-0.4-0.1-0.9-0.7-1c-1.3-0.1-2.4,6.6-4.8,10.4
		c1-18.9-4.6-18.9,8.3-28.5c0.4,0.4,0.7,0.8,1.1,1.1c0.5,0.5,1.3,0.4,1.9,0c0.9-0.7,0.1-1.6-0.7-2.9c9.6-8.4,8.7-8.1,12.2-13.8
		c0.3,0.2,0.6,0.4,0.9,0.5c0.3,0.1,0.7,0.3,1,0.3c0.7,0.1,1.3-0.4,1.5-0.8c0.2-0.5,0-0.9-0.7-1.4c-0.6-0.5-1.2-0.9-1.8-1.4
		c1.7-6.4,2.5-12.8,1.1-19.4c1.1-0.4,2.2-0.8,3.1-1.2c0.5-0.2,1-0.5,1.4-0.9C159.6,138.8,159.4,138.1,158.6,137.7z M116.1,187.3
		c-7.8,0-14.2-6.3-14.2-14.2c0-7.8,6.3-14.2,14.2-14.2c7.8,0,14.2,6.3,14.2,14.2C130.2,181,123.9,187.3,116.1,187.3z"/>
</g>
<path class="st62" d="M263.1,257.4c-0.4-7.2-0.9-14.3-2.8-21.4c4.1,0.2,4.8,0.6,5.2-0.2c0-0.5-0.5-0.6-0.8-0.7
	c-3.2-0.5-4.1-0.5-4.8-0.6c-2-4.9-4.8-12-10.1-11.9c-0.1-2.9,0-4.3-1.1-4.3c-1.4,0-1.1,2.2-1,4.8c-2.1,0.7-5.3,3.8-6.8,8.6
	c-1.6-0.9-2.6-1.7-3.6-1.5c-0.5,0.1-0.6,0.6-0.2,1c0.6,0.6,1.6,1.1,3.4,2c-0.1,4.9-0.2,9.6-0.4,14.5c-1.7,0-3.5-1.2-3.9-0.2
	c-0.4,1,2.2,1.5,3.8,1.9c0,1.6-0.4,4.6-0.3,12.7c0,3.8-0.1,7.1-0.3,10.1c-0.4-0.1-0.9-0.2-1.3-0.3c-0.5-0.1-0.9,0.2-1,0.7
	c-0.1,0.5,0.2,0.9,0.7,1c0.5,0.1,1,0.2,1.5,0.4c-0.9,10.7-3.2,15.8-5.4,15.9c-1.2,0-1.7-2.3-1.9-7.4l3-1.2c0.4-0.2,0.7-0.7,0.5-1.1
	c-0.2-0.4-0.7-0.7-1.1-0.5l-2.4,0.9c-0.1-3.8,0-8.9,0-15.3l2.9-0.5c0.5-0.1,0.8-0.5,0.7-1c-0.1-0.5-0.5-0.8-1-0.7l-2.6,0.4
	c0-10.7,0-25.1-0.7-43.4c1.9-0.3,2.7-0.3,2.7-1c0-1-1.5-0.8-2.8-0.8c-1.5-11.2-0.7-6.6-2.9-17.7c1-0.4,2.7-1,3.6-1.5
	c0.5-0.3,0.5-1.1-0.3-1.2c-0.7-0.1-1.4,0.1-3.8,0.9c-1.8-5.9-4.4-13-10.6-13.8c-0.1-3.3-0.1-3.1-0.2-3.7c-0.2-1.2-1.9-1.1-2.1,0
	c-0.1,0.6-0.1,0.4-0.2,3.7c-6.2,0.8-8.8,7.9-10.6,13.8c-2.5-0.7-3.2-1-3.8-0.9c-0.7,0.1-0.8,0.9-0.3,1.2c0.8,0.5,2.6,1.1,3.6,1.5
	c-2.2,11.2-1.5,6.5-2.9,17.7c-1.3,0-2.8-0.2-2.8,0.8c0,0.7,0.9,0.7,2.7,1c0,5.4,0,10.4-0.1,14.8l-3.3-0.2c-0.5,0-0.9,0.3-0.9,0.8
	c0,0.5,0.3,0.9,0.8,0.9l3.4,0.2c-0.2,10-0.5,17.5-0.9,23l-2.7-1.4c-0.4-0.2-0.9-0.1-1.2,0.3c-0.2,0.4-0.1,0.9,0.3,1.2l3.3,1.8
	c-1.1,12.4-3,13.9-5.2,13.8c-2.9-0.1-6-8.9-5.8-27.7c0.1-8.1-0.3-11-0.3-12.7c1.5-0.4,4.2-0.9,3.8-1.9c-0.4-1-2.2,0.2-3.9,0.2
	c-0.1-4.9-0.2-9.7-0.4-14.5c1.7-1,2.8-1.5,3.4-2c0.4-0.4,0.3-0.9-0.2-1c-0.9-0.2-2,0.6-3.6,1.5c-1.5-4.8-4.7-7.8-6.8-8.6
	c0.1-2.6,0.4-4.8-1-4.8c-1,0-1,1.4-1.1,4.3c-5.3-0.1-8.1,7-10.1,11.9c-0.7,0.1-1.6,0.1-4.8,0.6c-0.4,0.1-0.8,0.2-0.8,0.7
	c0.4,0.8,1.1,0.4,5.2,0.2c-1.9,7.1-2.4,14.2-2.8,21.4c-3.2,1.1-4,1.1-3.8,1.8c0.2,0.9,1.5,0.3,3.8,0c-0.2,5.7,0,11.2,0.7,16.8
	c-4.5,0.9-4.7,3.5,0.2,1.8c0.3,1.5,1.3,8.2,3.8,16.1l-1.8,0.4c-0.5,0.1-0.8,0.6-0.6,1c0.1,0.4,0.4,0.7,0.8,0.7c0.1,0,0.1,0,0.2,0
	l2-0.4c1.5,4.5,3.4,9.3,5.9,13.6c-0.7,0.4-1.5,0.8-2.2,1.2c-0.4,0.2-0.6,0.8-0.3,1.2c0.2,0.3,0.4,0.4,0.7,0.4c0.1,0,0.3,0,0.4-0.1
	c0.7-0.4,1.5-0.8,2.2-1.2c3.6,5.8,8.2,10.8,14.2,13.1c-0.5,0.7-1,1.3-1.6,1.9c-0.3,0.4-0.3,0.9,0.1,1.2c0.2,0.1,0.4,0.2,0.6,0.2
	c0.2,0,0.5-0.1,0.7-0.3c0.7-0.8,1.3-1.6,2-2.5c2.1,0.6,4.4,0.9,6.8,0.8c0.5,7.8,0.7,13.7,0.7,18.3c-4.1,3.8-6.7,9.1-6.7,15.1
	c0,0.8,0.1,1.6,0.2,2.4c-0.1,1.5-0.1,3.5-0.2,6c-0.8-1.4-1.3-5.2-3.1-7.3c-0.6-0.6-2.7-1.2-2,3c1.2,7.4,1.2,6.4,2,12.4
	c-1.2-0.7-2.4-3.7-3.6-3.2c-0.7,0.2-0.7,0.4-0.7,7.1c0,3.7,56,4,56,0c0-6.6,0-6.8-0.7-7.1c-1.2-0.4-2.5,2.6-3.6,3.2
	c0.8-6,0.8-5,2-12.4c0.7-4.1-1.4-3.6-2-3c-1.9,2.1-2.4,5.9-3.1,7.3c-0.1-2.6-0.2-4.5-0.2-6c0.1-0.8,0.2-1.6,0.2-2.4
	c0-5.7-2.4-10.9-6.1-14.6c0-1.4,0.1-2.8,0.1-4.3c4.2,0.2,7.9-0.8,11.1-2.6c0.3,0.5,0.6,1.1,0.9,1.7c0.1,0.3,0.5,0.5,0.8,0.5
	c0.1,0,0.2,0,0.4-0.1c0.4-0.2,0.6-0.7,0.4-1.1c-0.3-0.6-0.6-1.2-1-1.8c3.8-2.5,7-6.1,9.6-10.2l1.1,0.8c0.2,0.1,0.3,0.2,0.5,0.2
	c0.3,0,0.5-0.1,0.7-0.4c0.3-0.4,0.2-0.9-0.2-1.2l-1.2-0.9c2.8-4.8,5-10.1,6.5-15.1l2.2,0.5c0.1,0,0.1,0,0.2,0c0.4,0,0.7-0.3,0.8-0.7
	c0.1-0.5-0.2-0.9-0.6-1l-2.1-0.5c2.3-7.6,3.3-13.9,3.6-15.4c4.9,1.7,3.4-0.3,0.2-1.8c0.7-5.5,1-11.1,0.7-16.8c2.3,0.3,3.6,0.9,3.8,0
	C267,258.6,266.3,258.5,263.1,257.4z M231.3,344c0,9.7-7.9,17.5-17.5,17.5c-9.7,0-17.5-7.9-17.5-17.5c0-1.2,0.1-2.3,0.3-3.4
	c0.5-2.7,1.7-5.2,3.4-7.3c3.2-4.1,8.2-6.8,13.8-6.8c5.9,0,11.2,3,14.3,7.5c1.4,2,2.4,4.2,2.8,6.6C231.2,341.7,231.3,342.8,231.3,344
	z"/>
<g>
	<path class="st69" d="M257.4,150c0.2,1.2,1,5.8,2.5,11.7h-4.8c-0.5,0-0.9,0.4-0.9,0.9s0.4,0.9,0.9,0.9h105.1c0.5,0,0.9-0.4,0.9-0.9
		s-0.4-0.9-0.9-0.9h-5.9c0.6-5.2,0.8-10.4,0.6-15.7c2.3,0.3,3.6,0.9,3.8,0c0.1-0.7-0.6-0.7-3.8-1.8c-0.4-7.2-0.9-14.3-2.8-21.4
		c4.1,0.2,4.8,0.6,5.2-0.2c0-0.5-0.5-0.6-0.8-0.7c-3.2-0.5-4.1-0.5-4.8-0.6c-2-4.9-4.8-12-10.1-11.9c-0.1-2.9,0-4.3-1.1-4.3
		c-1.4,0-1.1,2.2-1,4.8c-2.1,0.7-5.3,3.8-6.8,8.6c-1.6-0.9-2.6-1.7-3.6-1.5c-0.5,0.1-0.6,0.6-0.2,1c0.6,0.6,1.6,1.1,3.4,2
		c-0.1,4.9-0.2,9.6-0.4,14.5c-1.7,0-3.5-1.2-3.9-0.2c-0.4,1,2.2,1.5,3.8,1.9c0,1.6-0.4,4.6-0.3,12.7c0,3.8-0.1,7.1-0.3,10.1
		c-0.4-0.1-0.9-0.2-1.3-0.3c-0.5-0.1-0.9,0.2-1,0.7c-0.1,0.5,0.2,0.9,0.7,1c0.5,0.1,1,0.2,1.5,0.4c0,0.3-0.1,0.7-0.1,1h-7.3
		c0-2.8,0-6.1,0-9.8l2.9-0.5c0.5-0.1,0.8-0.5,0.7-1c-0.1-0.5-0.5-0.8-1-0.7l-2.6,0.4c0-10.7,0-25.1-0.7-43.4c1.9-0.3,2.7-0.3,2.7-1
		c0-1-1.5-0.8-2.8-0.8c-1.5-11.2-0.7-6.6-2.9-17.7c1-0.4,2.7-1,3.6-1.5c0.5-0.3,0.5-1.1-0.3-1.2c-0.7-0.1-1.4,0.1-3.8,0.9
		c-1.8-5.9-4.4-13-10.6-13.8c-0.1-3.3-0.1-3.1-0.2-3.7c-0.2-1.2-1.9-1.1-2.1,0c-0.1,0.6-0.1,0.4-0.2,3.7c-6.2,0.8-8.8,7.9-10.6,13.8
		c-2.5-0.7-3.2-1-3.8-0.9c-0.7,0.1-0.8,0.9-0.3,1.2c0.8,0.5,2.6,1.1,3.6,1.5c-2.2,11.2-1.5,6.5-2.9,17.7c-1.3,0-2.8-0.2-2.8,0.8
		c0,0.7,0.9,0.7,2.7,1c0,5.4,0,10.4-0.1,14.8l-3.3-0.2c-0.5,0-0.9,0.3-0.9,0.8c0,0.5,0.3,0.9,0.8,0.9l3.4,0.2
		c-0.2,10-0.5,17.5-0.9,23l-2.7-1.4c-0.4-0.2-0.9-0.1-1.2,0.3c-0.2,0.4-0.1,0.9,0.3,1.2l3.3,1.8c-0.9,9.7-2.2,12.7-3.8,13.5H285
		c-2.6-1.6-5.1-10.4-5-27.4c0.1-8.1-0.3-11-0.3-12.7c1.5-0.4,4.2-0.9,3.8-1.9c-0.4-1-2.2,0.2-3.9,0.2c-0.1-4.9-0.2-9.7-0.4-14.5
		c1.7-1,2.8-1.5,3.4-2c0.4-0.4,0.3-0.9-0.2-1c-0.9-0.2-2,0.6-3.6,1.5c-1.5-4.8-4.7-7.8-6.8-8.6c0.1-2.6,0.4-4.8-1-4.8
		c-1,0-1,1.4-1.1,4.3c-5.3-0.1-8.1,7-10.1,11.9c-0.7,0.1-1.6,0.1-4.8,0.6c-0.4,0.1-0.8,0.2-0.8,0.7c0.4,0.8,1.1,0.4,5.2,0.2
		c-1.9,7.1-2.4,14.2-2.8,21.4c-3.2,1.1-4,1.1-3.8,1.8c0.2,0.9,1.5,0.3,3.8,0c-0.2,5.7,0,11.2,0.7,16.8
		C252.6,149,252.4,151.7,257.4,150z"/>
	<path class="st69" d="M360.3,191.6H255.2c-0.5,0-0.9,0.4-0.9,0.9s0.4,0.9,0.9,0.9h22.6c1.5,1.1,3.1,1.9,4.8,2.6
		c-0.5,0.7-1,1.3-1.6,1.9c-0.3,0.4-0.3,0.9,0.1,1.2c0.2,0.1,0.4,0.2,0.6,0.2c0.2,0,0.5-0.1,0.7-0.3c0.7-0.8,1.3-1.6,2-2.5
		c2.1,0.6,4.4,0.9,6.8,0.8c1.6,27.2,0.1,31.1,0.4,38.7c-2.7-7.5-2.8-8.8-3.8-9.8c-0.7-0.7-1.8-0.4-2,0.6c-0.3,1.7-0.3,2-0.7,12.4
		c-0.8-1.4-1.3-5.2-3.1-7.3c-0.6-0.6-2.7-1.2-2,3c1.2,7.4,1.2,6.4,2,12.4c-1.2-0.7-2.4-3.7-3.6-3.2c-0.7,0.2-0.7,0.4-0.7,7.1
		c0,3.7,56,4,56,0c0-6.6,0-6.8-0.7-7.1c-1.2-0.4-2.5,2.6-3.6,3.2c0.8-6,0.8-5,2-12.4c0.7-4.1-1.4-3.6-2-3c-1.9,2.1-2.4,5.9-3.1,7.3
		c-0.4-10.4-0.4-10.7-0.7-12.4c-0.2-1-1.2-1.3-2-0.6c-1,1-1.1,2.4-3.8,9.8c0.3-7.6,0-14.3,0.4-24.1c4.2,0.2,7.9-0.8,11.1-2.6
		c0.3,0.5,0.6,1.1,0.9,1.7c0.1,0.3,0.5,0.5,0.8,0.5c0.1,0,0.2,0,0.4-0.1c0.4-0.2,0.6-0.7,0.4-1.1c-0.3-0.6-0.6-1.2-1-1.8
		c3.8-2.5,7-6.1,9.6-10.2l1.1,0.8c0.2,0.1,0.3,0.2,0.5,0.2c0.3,0,0.5-0.1,0.7-0.4c0.3-0.4,0.2-0.9-0.2-1.2l-1.2-0.9
		c0.6-1.1,1.2-2.2,1.8-3.4h15.1c0.5,0,0.9-0.4,0.9-0.9S360.8,191.6,360.3,191.6z"/>
</g>
</svg>
