<?xml version="1.0" encoding="utf-8"?>
<!-- Generator: Adobe Illustrator 21.1.0, SVG Export Plug-In . SVG Version: 6.00 Build 0)  -->
<svg version="1.1" id="Calque_1" xmlns="http://www.w3.org/2000/svg" xmlns:xlink="http://www.w3.org/1999/xlink" x="0px" y="0px"
	 viewBox="0 0 432 432" style="enable-background:new 0 0 432 432;" xml:space="preserve">
<style type="text/css">
	.st0{fill:#C14148;}
	.st1{fill:#E28A6B;}
	.st2{fill:#373636;}
	.st3{fill:#3A6A52;}
	.st4{fill:#9B1917;}
	.st5{fill:#B298C8;}
	.st6{fill:#F39EA0;}
	.st7{fill:#C1944E;}
	.st8{fill:#F3B04B;}
	.st9{fill:#A5B449;}
	.st10{fill:#EC6284;}
	.st11{fill:#951B81;}
	.st12{fill:#A3195B;}
	.st13{fill:#9BC66B;}
	.st14{fill:#5FB157;}
	.st15{fill:#FFFFFF;}
	.st16{fill:#3F914D;}
	.st17{fill:#D53B87;}
	.st18{fill:#A6A8AA;}
	.st19{fill:#C8ACA0;}
	.st20{fill:#E6939F;}
	.st21{fill:#7A8D9F;}
	.st22{fill:#939D3C;}
	.st23{fill:#2A9798;}
	.st24{fill:#6595A9;}
	.st25{fill:#3C3C3B;}
</style>
<g>
	<g>
		<path class="st13" d="M71.9,235.2c0,0.5-0.2,2.8-0.3,3.2c-0.6-0.6,0.1,0-1.6-1.3c-0.7-0.6-1.8,0.5-1.1,1.1c1.7,1.4,2.8,2.7,3.7,2
			c0.5-0.4,0.4-1.3,0.5-1.8c0.1-1,0.2-2.1,0.3-3.1C73.5,234.3,72,234.3,71.9,235.2z"/>
		<path class="st13" d="M82.8,235.2c1-0.6,2-1.3,3-1.9c0.8-0.5,0.1-1.8-0.8-1.3c-0.6,0.4-1.2,0.8-1.8,1.1c0-1.1,0.1-2.1,0.2-3.2
			c0.1-1-1.4-1-1.5,0c-0.1,1.5-0.2,3.1-0.2,4.6C81.7,235.1,82.3,235.5,82.8,235.2z"/>
		<path class="st13" d="M91.1,248.2c0.5,0.8,1.8,0.1,1.3-0.8c-0.6-1-1.2-2-1.8-3c0.9-0.3,1.9-0.5,2.9-0.6c1-0.1,1-1.6,0-1.5
			c-1.4,0.2-2.8,0.5-4.2,1c-0.5,0.2-0.7,0.7-0.5,1.1C89.5,245.6,90.3,246.9,91.1,248.2z"/>
		<path class="st13" d="M84.4,260.5c0.1,1,1.6,1,1.5,0c-0.3-3.8-0.2-2-0.3-3.3c1,0.3,2,0.7,2.9,1.1c0.9,0.3,1.3-1.1,0.4-1.5
			c-0.9-0.3-1.7-0.6-2.6-0.9C83.4,255,84,256,84.4,260.5z"/>
		<path class="st13" d="M77.2,250.8c-0.2-1-1.6-0.5-1.5,0.4c0.7,3.2,0.9,4.1,0.9,4.1c-0.8-0.2-0.6-0.2-2.2-0.6
			c-0.9-0.2-1.3,1.2-0.4,1.5c1.8,0.5,3.8,1.4,4.2,0.2c0.2-0.7-0.3-1.8-0.4-2.5C77.6,252.8,77.4,251.8,77.2,250.8z"/>
		<path class="st13" d="M105,251.7c2.1-3.2,2.8-3.8,2.2-4.4c-0.3-0.3-0.9-0.3-1.2,0.1c0,0-1.5,2.4-1.5,2.4c-0.2-0.4-0.9-2.2-0.9-2.3
			c-0.6-0.8-1.6-0.2-1.4,0.6c0.4,1.2,1.1,2.8,1.6,3.6C104,252.2,104.7,252.1,105,251.7z"/>
		<path class="st13" d="M97.3,273.7c0.2-0.3,0.4-0.6,0.6-0.9c0,0.2,0.2,2.4,0.3,2.6c0.2,0.8,1.4,0.8,1.5,0c0.1-0.5-0.4-4.3-0.5-4.8
			c0-0.2-0.1-0.3-0.3-0.4c-0.1,0-0.3-0.1-0.4-0.1c-0.3,0-0.6,0.1-0.7,0.3c-0.6,0.8-1.2,1.7-1.8,2.5
			C95.4,273.7,96.7,274.5,97.3,273.7z"/>
		<path class="st13" d="M106,276.7c-0.4,0.8-0.9,1.7-1.3,2.5c-0.5-0.8-0.9-1.6-1.4-2.4c-0.4-0.9-1.7-0.1-1.3,0.8
			c0.6,1.2,1.3,2.4,2.1,3.5c0.3,0.4,1,0.5,1.3,0c0.6-1.2,1.2-2.4,1.9-3.6C107.8,276.6,106.5,275.9,106,276.7z"/>
		<path class="st13" d="M98.4,280c0,0-0.5,1.1-0.5,1.1c-0.3-0.4-0.6-0.9-1-1.3c-0.7-0.9-1.8,0.1-1.3,0.8c1.4,1.8,1.8,2.8,2.5,2.5
			c0.9-0.3,1-1.1,1.7-2.7C100.2,279.6,98.9,278.9,98.4,280z"/>
		<path class="st13" d="M105.3,257.9c0-0.4,0-0.7,0.1-1.2c0.2-0.9-1.3-1.4-1.5-0.4c-0.3,1.5-0.4,3.7,1.1,3.4
			c0.6-0.1,2.2-1.2,2.6-1.6c0.5-0.4,0.4-1,0-1.3C107.2,256.4,107,256.9,105.3,257.9z M104.8,258.2
			C104.8,258.2,104.8,258.2,104.8,258.2C104.7,258.2,104.7,258.2,104.8,258.2z"/>
		<path class="st13" d="M105.3,235.7c0.4,0.5,1.2,0.5,1.4-0.2c0.4-1.4,0.8-2.8,1.3-4.2c0.3-0.9-1.2-1.3-1.5-0.4
			c-0.3,0.8-0.5,1.6-0.8,2.5c-0.2-0.5-0.4-1-0.6-1.5c-0.3-0.9-1.8-0.5-1.5,0.4C104.1,233.5,104.6,234.6,105.3,235.7z"/>
		<path class="st13" d="M109,238.2c0.3-0.3,0.6-0.5,0.9-0.8c-0.1,0.5-0.2,0.9-0.3,1.4c-0.1,0.9,1.3,1.4,1.5,0.4
			c0.2-1.2,0.5-2.4,0.9-3.6c0.2-0.6-0.6-1.2-1.1-0.9c-1,0.7-2,1.5-3,2.3C107.2,237.8,108.2,238.8,109,238.2z"/>
		<path class="st13" d="M85.5,220.9c0.8-0.5,0-1.9-0.8-1.3c-1.5,1-1,0.7-1.6,1.1c-0.1-0.4-0.1-0.8-0.1-1.6c0-1-1.5-1-1.5,0
			C81.6,224.4,83.4,222.4,85.5,220.9z"/>
		<path class="st13" d="M61.7,225.8c-0.6-0.8-1.7,0.3-1.1,1.1c0.9,1.1,0.9,1.2,1.1,1.4c-0.5,0-0.8,0-1.6,0c-1-0.1-1,1.5,0,1.5
			c0.7,0,1.4,0,2.1,0C65.1,229.5,63.1,227.6,61.7,225.8z"/>
		<path class="st13" d="M150.2,250.5c-0.9,0.6-1.7,1.2-2.6,1.8c-1.7-1.9-4.4-3-6.8-3.3c0.2-3.4-0.6-7.1-2.7-9.8
			c0.3-0.4,1.2-2.7,1.5-4.7c0.2,0.1,0.3,0.2,0.5,0.3c0.8,0.5,1.6-0.8,0.8-1.3c-0.3-0.2-0.7-0.4-1-0.6c0-0.6,0-1.3,0-1.9
			c0.5-0.3,1-0.6,1.5-0.8c0.9-0.5,0.1-1.8-0.8-1.3c-0.3,0.2-0.7,0.4-1,0.6c-0.6-2.2-2.2-4.3-4.3-4.8c0.1-0.6,0.3-1.1,0.6-1.7
			c0.4-0.9-1.1-1.3-1.5-0.4c-0.3,0.7-0.4,1.4-0.6,2c-0.5,0.1-1,0.3-1.5,0.7c-0.5-0.3-1-0.7-1.4-1c-0.8-0.6-1.6,0.8-0.8,1.3
			c0.4,0.3,0.8,0.5,1.2,0.8c-1.7,2.7-1.8,5.9-1.1,9c-3.4-0.2-7.2,0.8-11.1,3.2c0-0.4,0-0.8,0-1.2c0-1-1.5-1-1.5,0c0,0.8,0,1.5,0,2.3
			c-0.3,0.2-0.6,0.5-0.9,0.8c-0.3-0.3-0.7-0.5-1-0.8c-0.8-0.6-1.5,0.7-0.8,1.3c0.2,0.2,0.4,0.3,0.7,0.5c-1.3,1.2-2.4,2.5-3.5,3.9
			c-0.1-0.2-0.2-0.4-0.3-0.6c2.6-3.3,4-7.5,3.7-11.6c0.6-0.1,1.3-0.2,1.8-0.3c0.1,0.3,0.2,0.6,0.3,0.9c0.3,0.9,1.8,0.5,1.5-0.4
			c-0.1-0.4-0.2-0.7-0.4-1.1c0.5-0.3,0.9-0.7,1.3-1.1c0.4,0.1,0.9,0.1,1.3,0.2c1,0.2,1.4-1.3,0.4-1.5c-0.3,0-0.5-0.1-0.8-0.1
			c1.5-3.1-0.4-6.1-2.9-6.7c0.1-0.5,0.3-0.9,0.6-1.3c0.5-0.8-0.8-1.6-1.3-0.8c-0.4,0.6-0.6,1.3-0.8,2c-0.3,0-0.5,0.1-0.8,0.2
			c-0.2-0.2-0.4-0.4-0.5-0.6c-0.7-0.7-1.7,0.4-1.1,1.1c0.1,0.1,0.2,0.2,0.3,0.3c-0.7,0.5-1.3,1.2-1.8,1.8c-1.9-2-4.4-2.5-6.5-1.9
			c-0.1-0.5-0.1-1-0.3-1.6c-0.2-1-1.6-0.5-1.5,0.4c0.1,0.6,0.2,1.2,0.3,1.8c-0.2,0.1-0.4,0.3-0.6,0.4c-0.4-0.3-0.8-0.6-1.2-0.9
			c-0.8-0.6-1.8,0.5-1.1,1.1c0.4,0.3,0.8,0.6,1.2,0.9c-2.7,3.2-2.7,9.9-2.3,14c-0.9-2.5-2.1-4.9-3.5-7.2c0.8-0.2,0.8-1.6-0.1-1.5
			c-0.3,0-0.5,0-0.8,0.1c-0.5-0.7-1-1.4-1.5-2c0.2-0.5,0.4-1,0.7-1.5c0.5-0.9-0.8-1.6-1.3-0.8c-0.2,0.3-0.3,0.7-0.5,1
			c-1.6-1.8-3.5-3.5-5.5-4.9c0.5-0.9,1.1-3.2,1.1-5.3c0.2,0.1,0.4,0.1,0.6,0.2c0.9,0.3,1.3-1.2,0.4-1.5c-0.4-0.1-0.8-0.2-1.2-0.4
			c-0.1-0.5-0.2-1-0.4-1.5c0.3-0.2,0.6-0.4,0.9-0.6c0.8-0.6,0-1.9-0.8-1.3c-0.3,0.2-0.5,0.4-0.8,0.6c-1.5-2.3-3.7-3-5.9-2.3
			c0-0.4,0-0.9,0.1-1.3c0.1-1-1.4-1-1.5,0c-0.1,0.7-0.1,1.4-0.1,2c-0.4,0.3-0.8,0.6-1.1,0.9c-0.4-0.3-0.8-0.6-1.2-0.9
			c-0.8-0.5-1.6,0.8-0.8,1.3c0.4,0.2,0.7,0.5,1.1,0.8c-0.9,1.5-1.5,3.9-1.4,6.1c-3.3,0.3-6.5,1.9-8.9,4c-1.3-1.4-3-2.4-4.9-2.8
			c0.5-0.9,1.1-1.7,1.6-2.6c0.5-0.8-0.8-1.6-1.3-0.8c-0.4,0.7-0.9,1.4-1.3,2.1c-0.2,0.3-0.4,0.6-0.6,0.9c0,0,0,0,0,0.1
			c-0.2,0-0.3,0-0.5,0c-0.3-1-0.4-2.1-0.7-3.1c-0.3-0.9-1.8-0.5-1.5,0.4c0.3,0.9,0.4,1.8,0.6,2.7c-0.2,0-0.4,0-0.6,0.1
			c0,0,0,0-0.1,0c0,0-0.1,0-0.1,0c-3.7,0.8-6.1,4.4-3.9,7.9c1.3,2,4.1,4.4,7,5.5c-0.7,2.9-0.9,6-0.4,9c-0.3-0.2-0.7-0.4-1-0.6
			c-0.8-0.6-1.8,0.5-1.1,1.1c0.7,0.6,1.6,1.1,2.4,1.5c0.1,0.6,0.3,1.1,0.5,1.7c-0.5,0.2-0.9,0.4-1.4,0.6c-0.9,0.4-0.1,1.7,0.8,1.3
			c0.4-0.2,0.7-0.3,1.1-0.4c2.7,7.4,8.2,13.4,14.4,18.2c-0.4,0.1-0.8,0.3-1.2,0.4c-0.9,0.3-0.5,1.8,0.4,1.5c0.8-0.2,1.5-0.5,2.3-0.7
			c0,0,0,0,0,0c0.7,0.5,1.3,1,2,1.4c-0.1,0.6-0.1,1.2-0.1,1.8c0.1,1,1.6,1,1.5,0c0-0.3,0-0.5,0-0.8c2.1,1.5,4.6,3.4,7.2,4.7
			c-0.2,1.1-0.3,2.1-0.4,3.1c-0.4-0.2-0.8-0.3-1.2-0.4c-0.9-0.3-1.3,1.2-0.4,1.5c0.5,0.2,1,0.3,1.5,0.6c0,0.4,0,0.8,0,1.1
			c-0.4,0.3-0.9,0.6-1.3,0.9c-0.8,0.5,0,1.9,0.8,1.3c0.2-0.1,0.4-0.3,0.6-0.4c0,0.7,0.1,1.5,0.2,2.3c-15.3-0.1-13.9-0.1-14.7-0.1
			c-3.9-0.1-4.6,1.7-4.2,5.8c0.3,2.9-0.5,4.9,1.2,6.2c0.5,0.4,4,0.6,4.7,0.7c1.6,8.9,1.6,34.9,4.1,37.3c1.7,1.7,5.4,0.9,7.3,0.9
			c26.1,0,24.9,0,26.7,0.2c1.7,0.2,3.7,0.3,5.4-0.6c2.7-1.5,2.5-4.3,2.6-6.6c1.2-18.8,1.6-27.5,1.9-30.9c1.3-0.1,2.4-0.1,3.2-0.2
			c1.4,0.4,2.7-0.8,2.5-4.1c0-0.6-0.1-0.8,0-2.2c0.5-8.1-2-6.4-19.2-6.4c0.4-3.2,0.3-6.5-0.4-9.7c5.4-1.7,11-3.5,16-6.2
			c-0.1,0.8-0.1,1.6-0.2,2.4c-0.1,1,1.4,1,1.5,0c0.3-3,0.3-2.6,0.3-3.3c0.5-0.3,1-0.6,1.5-1c0.6,0.4,1.2,0.9,1.7,1.3
			c0.7,0.6,1.8-0.4,1.1-1.1c-0.5-0.4-1-0.8-1.5-1.1c2.9-2.2,5.3-4.7,7.2-7.9c4.8,5,11,2.1,11.4-2c0.1,0.1,0.3,0.1,0.4,0.2
			c0.8,0.5,1.6-0.8,0.8-1.3c-0.4-0.3-0.9-0.5-1.3-0.7c-0.1-0.4-0.3-0.8-0.5-1.1c0.8-0.6,1.7-1.2,2.5-1.7
			C151.7,251.3,151,250,150.2,250.5z M138.4,257.1c1.1-2.1,1.8-4.3,2.2-6.6c2.1,0.2,4.2,1.1,5.6,2.7c-1.9,1.3-0.3,1.7,1.2,2.4
			C147.8,259.1,142.7,261.7,138.4,257.1z M129.1,265.5c-2.2-1.2-2.6-0.4-2.7,1.8c-5.1,3-11,4.8-16.5,6.6c-0.2-0.6-0.2-0.9-0.6-1.9
			c0.2,0,0.4,0,0.6,0c1,0.1,1-1.4,0-1.5c-0.4,0-0.8,0-1.2,0c-0.1-0.2-0.2-0.5-0.4-0.7c0.2-0.2,0.3-0.4,0.4-0.6
			c0.6-0.7-0.4-1.8-1.1-1.1c-0.1,0.1-0.1,0.2-0.2,0.2c-0.2-0.2-0.3-0.5-0.5-0.7c1.4-1.5,8.3-11.4,5.8-20.6c1.2-1.6,2.6-3.2,4.1-4.7
			c0.4,0.3,0.8,0.6,1.2,0.9c0.5,0.3,1.1-0.1,1.1-0.7c0-0.7,0-1.5,0-2.2c3.4-2.5,7.4-4.2,11.5-3.7c1.3,4.2,4.9,4.4,6.5,3.5
			C141.6,246.4,139.5,258.1,129.1,265.5z M123.5,296.5c0-0.1,0-9.9,0-10c1.4,0,3.3-0.1,4.1,0.6c0,0,0.1,0.1,0.1,0.1
			c1.1,1.1,0.5,3.3,0.6,7.2c0,0.6,0,1.4-0.4,1.8C127,296.4,124.3,296.5,123.5,296.5z M111.1,334.4c0.3-1.3,0.6-6.2,3.6-6.9
			c3.1-0.7,3.9,4.4,4.2,6.5C117.1,335.2,115.5,334.5,111.1,334.4z M101.2,334.4c4-12.8,6.3-2.1,7.4,0
			C105.8,334.4,106.5,334.4,101.2,334.4z M81.5,334.2c2-7,3.9-8,6.8,0.2C85.1,334.4,82.9,334.8,81.5,334.2z M121.3,316.6
			c-14,1.6-28.2,1.7-42.2,0.2c-0.1-0.8-0.1-1.6-0.1-2.4c14.2,0.9,28.4,0.9,42.5-0.1C121.4,315,121.3,315.8,121.3,316.6z M90.3,334.4
			c3.2-10,5.7-6.5,8.8,0H90.3z M120.2,332.3c-2-11-10-5.9-10.5,0.5c-1.1-2.8-2.3-6.2-4.5-6.3c-2.6-0.2-4.2,3.7-5,6.4
			c-4-8.8-7.9-8.3-10.8-0.3c-2.5-7-6.4-8.2-8.8-0.3c-0.6-2.8-1-8.5-1.4-13.9c14,1.5,28.1,1.4,42-0.2
			C120.4,331.3,120.5,331.3,120.2,332.3z M121.5,312.8c-14.2,0.9-28.5,1-42.7,0.1c-0.3-4.9-0.6-8.6-0.8-11.4
			c1.7,2.8,5.1,2.9,6.8-1.5c1.5,3.5,4.7,4.6,7.1,0.2c1.4,4.4,5.2,5.9,7.4,0.4c1.6,3.4,6.1,5.2,8.2-0.6c1.9,4.6,4.7,4.3,6.2,0.3
			c1.5,3.2,5.4,4.3,8.7-0.8C122.1,302.1,121.9,306.2,121.5,312.8z M71.6,293.1c0.1-2.5-0.5-4.3,0.1-5.9c0.4-1.1,1.2-0.9,4.2-0.9
			c0.2,3.3,0.5,7.3,0.7,9.7c-0.3,0-0.5,0-1-0.1C71.8,295.9,71.5,296.1,71.6,293.1z M121.9,286.6c0,0,0,10,0,10
			c-2,0.1-4.4,0.1-7.1,0.1c0,0,0.4-10.1,0.4-10.1C122.5,286.6,120.9,286.6,121.9,286.6z M77.4,286.4l6.7,0c0,1-0.2,4.5,0.3,10
			c-2.3-0.1-4.5-0.1-6.3-0.2C78,294.5,77.4,287.1,77.4,286.4z M91.7,286.5c0,0-0.2,8.2-0.2,10.1c-1.9,0-3.8-0.1-5.6-0.1
			c-0.5-5.5-0.3-9-0.3-10C86.9,286.5,90.3,286.5,91.7,286.5z M106.8,296.7c-1.9,0-4.2,0-6.5,0c0,0,0.4-10.1,0.4-10.1l6.1,0
			C106.8,287.5,106.8,291.1,106.8,296.7z M93.2,286.5l6.1,0c0,0-0.4,10.1-0.4,10.1c-2,0-3.9,0-5.9-0.1
			C93,296.6,93.2,286.5,93.2,286.5z M83.9,297.9c-1.2,5-4.3,5.7-5.7-0.2C79.9,297.8,81.8,297.9,83.9,297.9z M91.3,298.1
			c-0.7,1.4-1.7,3.9-3.6,3.2c-1.2-0.4-1.7-2.1-2.1-3.3C87.5,298,89.4,298.1,91.3,298.1z M98.5,298.2c-1.9,7.3-4.9,4.2-5.5-0.1
			C94.9,298.1,96.6,298.2,98.5,298.2z M100.1,298.2c2.1,0,4.5,0,6.3,0C104.8,305.1,100.4,301.7,100.1,298.2z M112.8,298.2
			c-1.4,4.8-2.9,4.5-4.5,0C109.8,298.2,111.3,298.2,112.8,298.2z M121.5,298c-2.9,5.3-6.4,3.9-7,0.1
			C117,298.1,119.4,298.1,121.5,298z M113.4,296.7c-1.6,0-3.3,0-5.1,0c-0.1-6,0-7.8,0-10.1c0.8,0,4.7,0,5.5,0
			C113.9,286.6,113.4,296.7,113.4,296.7z M90.4,285c-0.1-1.1-0.2-2.2-0.2-3.3c1.8-1.2,2.5-1.6,0.1-2.8c1.5-16.7,11.5-17.2,16.1-9.3
			c-2.1,3-0.1,2.5,1.2,2.4c1.5,3.9,2,8.5,1.4,13.1L90.4,285z M80.9,267.6c0,0-0.1-0.1-0.1-0.1c0.1,0,0.1,0,0.2-0.1
			C80.9,267.5,80.9,267.6,80.9,267.6z M79,266.3c-6.4-4.8-12.2-10.8-14.9-18.4c2.7-1.2,1.6-2.2-1-3.5c-2.4-11.4,4.5-21.8,14.1-22.8
			c1.3,4.8,7,5.6,9.9,2.8c2.2,1.4,4.1,3.3,5.8,5.3c-1.1,3.5-0.7,3.4,2.5,3.3c2.2,3.3,3.8,6.9,4.9,10.8c-4.1,4.6-5.2,14.8-5.1,20.4
			c-3,1.8-4.7,5.4-5.6,9.3c-2.6-1.3-5-3.2-7.4-4.8C82.7,265.6,82,265.6,79,266.3z M63.6,246.3c0.1,0.1,0.2,0.1,0.2,0.2
			c-0.1,0-0.1,0-0.2,0.1C63.7,246.4,63.6,246.3,63.6,246.3z M59.9,222.4c0.5,1.3,1.5,1.6,2.4,0.2c1.8,0.3,3.5,1.2,4.6,2.5
			c-2.2,2.2-3.8,4.9-4.7,7.8c-1.6-0.8-3.3-2-4.5-3C53.2,225.9,56.4,222.6,59.9,222.4z M79.7,214.8c2.9,1.8,2.3-0.1,2.3-2.1
			c1.7-0.8,3.5-0.5,4.7,1.6c-0.6,0.5-1.5,1-1.3,1.8c0.2,0.8,1.4,1,2.3,1.2c0.8,9-8.6,8.9-9.1,2.6C78.4,218.4,78.8,216.3,79.7,214.8z
			 M87.3,215.8C87.3,215.8,87.3,215.8,87.3,215.8C87.3,215.7,87.2,215.8,87.3,215.8C87.3,215.8,87.3,215.8,87.3,215.8z M94.1,231.1
			c0.1,0.1,0.2,0.2,0.3,0.4c-0.1,0-0.2,0-0.3,0C94.1,231.3,94.1,231.2,94.1,231.1z M105.3,227.8c0.5,0.3,1.2-0.1,1.1-0.7
			c0-0.6-0.1-1.2-0.1-1.7c2.1-0.7,3.9-0.1,5.3,1.6c-2.3,3.4-0.4,5.7,2.4,6.1c0.3,3.7-0.8,7.4-3,10.3c-2.2-3.1-5.5-3.3-8.6-1.4
			c-0.6-4.3-1.1-11.8,1.7-15.1C104.5,227.2,104.9,227.5,105.3,227.8z M115.4,225.1c0.3,0.3,0.5,0.6,0.8,0.9c0.4,0.4,1.1,0.2,1.3-0.3
			c0.1-0.4,0.2-0.8,0.3-1.2c1.6,0.4,3.2,2.6,1.7,5c-1.9-0.3-3.1-0.8-2.5,1.9c-3.5,0.9-6.7-0.2-3.4-4.3
			C114.1,226.4,114.8,225.6,115.4,225.1z M111.5,254.1c-0.8,4.5-4,10.6-5.6,12.3c-2.4-2.8-5.6-4.2-9.2-3c-0.1-3.7,0.7-14.2,4.5-18.6
			c2.6-3,7.2-4.3,9.3,1.2C111.7,248.5,111.9,251.8,111.5,254.1z M132.5,227.3c0.7,0.5,1.4,1.2,2,0.7c0.6-0.4,0.4-1.3,0.4-1.9
			c1.5,0.3,2.7,2.5,3.2,4.2c-0.6,0.4-1.6,0.8-1.7,1.5c-0.1,0.8,0.8,1.2,1.8,1.9c-0.2,1.6-0.8,3.2-1.4,4.7c-1.2,2-4-0.1-4.6-1.4
			C131.9,236,130.3,230,132.5,227.3z M138.4,231.9C138.4,231.9,138.4,231.9,138.4,231.9C138.4,231.9,138.4,231.9,138.4,231.9
			C138.4,231.9,138.4,231.9,138.4,231.9z"/>
		<path class="st13" d="M118,256c1-0.1,1-1.6,0-1.5c-0.9,0.1-1.6,0.5-2.4,0.8c0.2-0.7,0.4-1.5,0.6-2.2c0.2-0.9-1.2-1.3-1.5-0.4
			c-0.3,1.1-0.6,2.3-0.9,3.4c-0.1,0.5,0.2,1,0.7,1C115.8,257,116.8,256.1,118,256z"/>
		<path class="st13" d="M119.4,265.8c-1-0.4-1.9-0.7-2.9-1.1c0.7-0.4,1.3-0.7,2.1-0.9c0.9-0.2,0.5-1.7-0.4-1.5c-1.4,0.4-2.7,1-3.8,2
			c-0.5,0.4-0.1,1.1,0.3,1.3c1.4,0.6,2.9,1.1,4.3,1.7C119.9,267.6,120.3,266.1,119.4,265.8z"/>
		<path class="st13" d="M126,247.1c-0.6,0.5-1.2,1-1.9,1.5c0.1-1.1,0.2-2.1,0.4-3.2c0.2-1-1.3-1.4-1.5-0.4c-0.3,1.7-0.5,3.4-0.6,5.2
			c0,0.6,0.7,1,1.1,0.7c1.2-0.8,2.3-1.7,3.4-2.6C127.9,247.6,126.8,246.5,126,247.1z"/>
		<path class="st13" d="M132.2,253.2c-0.6,0.8-1.2,1.5-1.8,2.2c0-0.8-0.1-1.6-0.1-2.4c0-1-1.5-1-1.5,0c0,1.4,0.1,2.9,0.2,4.3
			c0,0.6,0.8,1.1,1.3,0.5c1-1.1,2.1-2.3,3-3.6C133.9,253.5,132.8,252.5,132.2,253.2z"/>
		<path class="st13" d="M135.2,242.7c-1.9,2-2.6,2.8-2.6,2.8c0,0-0.5-3.4-0.5-3.4c-0.1-1-1.6-0.6-1.5,0.4c0.5,3.4,0.6,4.7,1.6,4.9
			c0.9,0.1,1.4-0.7,4.1-3.6C136.9,243.1,135.9,242,135.2,242.7z"/>
		<path class="st13" d="M100.4,255.1c-0.1,1.1-0.6,3.5-0.6,3.7c-0.3-0.3-0.5-0.6-0.8-0.9c-0.6-0.7-1.7,0.3-1.1,1.1
			c0.6,0.7,1.2,1.8,2.2,1.9c0.3,0,0.5-0.1,0.7-0.4c0.4-0.8,0.9-4,1-4.9C102,254.5,100.6,254.1,100.4,255.1z"/>
	</g>
	<path class="st13" d="M261.5,114.3c-3.5-1.2-7.5-1.1-10.8,0.6c-7.4,3.8-8.2,13.9-8.1,22.1c0.1,7.5,7.9,60.3-8.5,64.1
		c0-127.9-62.8-107.5-50.7,26.3c-25.1-7.5-3.4-72.1-14-84.5c-3.2-3.7-11.4-4.7-13.8-4.6c-3.6,0.1-7.2,2-9.6,9.6
		c-4.5,14.4-3.4,64.1,5.4,84.5c6.4,15,20.1,26.6,36.4,29c0.3,1.9,0.7,3.8,1,5.7l-10.5,0c-2.2,0-5-0.6-5.9,2.9c-0.5,2.1,0,4.2,0,6.1
		c0,1.5-0.6,4.2,1.4,5.6c0.7,0.5,4.9,0.8,5.7,0.8c1.9,10.8,1.9,42.5,4.9,45.4c1.6,1.6,4.7,1.4,7.2,1.2c1.7-0.1,30.8-0.2,34.1,0.1
		c2.1,0.2,4.5,0.4,6.5-0.7c3.3-1.9,3-5.3,3.2-8.1c1.4-22.6,2-33.4,2.4-37.5c5.6-0.2,7.3,0.1,7-5.2c-0.2-3.5,1.5-9.7-4-10.4
		c-0.6-0.1-11.1-0.1-11.6-0.1c1.4-10.8,2.6-21.7,3.4-32.7c19.2-4.8,28.9-17.2,34-36.5c3.1-11.8,4.9-24.2,5.8-36.3
		C273.5,147.7,274.8,119,261.5,114.3z M256.2,115.3c0.8,0,1.6,0,2.4,0.2c5.3,19.9,5.4,41.7,2.9,62.1c-2.2,17.6-9.5,37.6-27.9,43.4
		c0.1-2.1,0.2-4.1,0.3-6.2c16.1-5.5,23.9-20.8,25.1-37.1C260.4,156.8,252.2,136.2,256.2,115.3z M233.5,222.9
		c28.1-8.3,31.9-45.2,31.1-74.4c-0.3-10.9-1.3-21.9-4-32.5c0,0,0.1,0,0.1,0c7.7,15.6,7,48.4,4.9,65.6c-2.6,21.9-10,37.2-32.4,45.5
		C233.3,225.7,233.4,224.3,233.5,222.9z M257.3,171.4c0.2,17.2-6.1,35.1-23.3,41.3c0.1-1.8,0.1-3.5,0.1-5.3
		c11.5-1.1,20.3-17,20.9-35.4c0.8-22.5-8.5-41-2.9-56c0.7-0.3,1.5-0.5,2.2-0.7C250.9,134.2,257,152.7,257.3,171.4z M245.5,150.8
		c-1-9.5-3-26.9,4.2-33.1c-3.7,12.7,2.1,27.9,3.3,46.2c1.5,23.4-7.8,40.6-18.9,41.8c0-0.9,0-1.7,0-2.6
		C248.5,200.6,247.1,165.3,245.5,150.8z M212.6,118.6c6.8,18.2,9.2,37.5,10.5,56.8c2,30.1,3.4,62.9-1,92l-5.4,0
		c1.3-51,3.8-100.1-6.2-149.8C211.7,118,212,118.2,212.6,118.6z M242.6,280.9c-4.4,1.1-65,0.6-67.7-0.6c-1-0.8-0.6-2.6-0.6-4.2
		c0-3.7-1.4-7.2,2.3-7.2c0.5,0,64.1,0.3,64.6,0.4c2.8,0.7,1.8,4.4,1.8,7.5C243,278.2,243.4,280.1,242.6,280.9z M226,327.6
		c-1.8-0.2-1.9-0.1-3.5-0.2c3.7-3.7,7.5-7.3,11.5-10.7C233.4,325.2,234.4,328.4,226,327.6z M191.6,327.5c-1.4,0.1-3.2,0.2-4.5-0.1
		c3.4-3.4,6.8-6.9,10-10.4c2.7,3.5,5.5,6.9,8.2,10.4C191.9,327.4,193.3,327.4,191.6,327.5z M207.1,326.7c-2.5-3.2-5.1-6.5-7.6-9.7
		c5.1,0.5,10.2,1.1,15.2,2.3C212.1,321.8,209.6,324.3,207.1,326.7z M194.1,317.6c-2.6-1.5-5.2-2.8-7.8-4.2
		c6.6-1.9,12.8-4.6,18.8-7.9C201.5,309.6,197.8,313.6,194.1,317.6z M197.3,284.1c2.9,5.9,6.2,12.5,9.2,18.4c0,0-0.1,0-0.1,0.1
		c-7.4,0-15.6,0.2-22.7-2.1C183.8,300.5,197.3,284.1,197.3,284.1z M209.4,302.1c2.5-6.3,4.3-12,6-18.1c4.4,7.2,7.6,12.4,8.5,14
		C219.2,300.1,214.4,301.5,209.4,302.1z M207.9,305.1c2.1,4.1,4.3,8.2,6.5,12.2c-5.1-1.2-10.2-1.7-15.4-2.2
		C202,311.8,204.9,308.5,207.9,305.1z M207.8,301c-3.5-6.8-7.3-14.4-8.9-17.7c4.8,0.1,9.8,0.1,14.6,0.1
		C212.1,288.6,210.6,293.9,207.8,301z M203.2,304.4c-6.1,3.4-12.6,6-19.4,7.8c0,0-0.1-0.1-0.2-0.1c-0.2-3.1-0.4-6.7-0.6-9.9
		C189.3,304.2,196.5,304.4,203.2,304.4z M209.3,303.9c5.1-0.6,10-1.9,14.6-4c-1.1,8.4-2.1,16.9-3.2,25.3
		C216.9,318.2,213,311.1,209.3,303.9z M225.7,301c7.3,11.6,6.8,12.3,7.6,13.8c-3.7,3.1-7.2,6.4-10.6,9.8
		C223.7,316.8,224.7,308.9,225.7,301z M225.2,296.8c-2.7-4.4-5.4-9-8.2-13.4c5.5,0,12.8,0,18.3-0.2
		C232.3,287.9,228.9,292.5,225.2,296.8z M195.6,283.2c0,0-12.8,15.5-12.8,15.5c-0.5-8-0.9-13-1.4-16
		C185.8,283,191.3,283.1,195.6,283.2z M192.8,318.9c-2.4,2.5-4.8,5-7.3,7.5c-0.7-1.5-1.2-6.5-1.7-12.2
		C186.9,315.7,189.8,317.3,192.8,318.9z M216,320.4c1.3,2.3,2.5,4.7,3.8,7c-3.8,0-3.3,0-10.9,0C211.4,325.1,213.7,322.8,216,320.4z
		 M234.2,312.5c-2.2-4.9-5.2-9.5-8-14c3.5-4,6.7-8.3,9.6-12.7C235.5,290.1,235.2,297.3,234.2,312.5z M206.5,267.3l-3.7,0
		c-6.5-49.8-6.1-100,3-147.7C204.2,168.9,204.5,218.1,206.5,267.3z M208.6,117.2c10.1,49.3,7.6,99.9,6.3,150.2l-6.6,0
		c-2.1-50-2.3-100.1-0.7-150.2C207.9,117.2,208.3,117.2,208.6,117.2z M200.9,267.3l-5,0c-6.3-46.5-9.9-105.8,7.4-148.8
		c0.2-0.1,0.5-0.3,0.7-0.4C194.6,167.2,194.5,218.1,200.9,267.3z M186.2,250.9c0.1,0.9,0.3,1.7,0.4,2.6
		c-21.3-8.5-25.9-26.8-28.6-49.5c-2.5-21.2-2-42.6,1.4-63.6c0.1,0,0.1,0,0.2,0C161.6,189,152.1,234.2,186.2,250.9z M183.6,229.4
		c0.3,3.2,0.6,6.3,1,9.5c-28.2-14.8-14.3-73-19.1-96.5C180.9,151,153.8,222.2,183.6,229.4z M163.4,141.5
		c5.5,22.8-9.7,85.1,21.4,99.6c0.3,2.6,0.6,5.1,1,7.7c-31.3-16.6-22.5-58.2-24.5-107.8C162.1,141,162.8,141.2,163.4,141.5z
		 M156.6,207.8c3.1,22.9,8.8,39.6,30.3,47.8c0,0.1,0,0.2,0,0.2c-34.5-9.8-33.9-43.8-35.1-68.4c-0.6-13-0.8-35.5,4.7-47.3
		c0.3,0,0.7,0,1,0C153.9,162.5,153.5,185.3,156.6,207.8z M154,233.8c-7.7-15.9-7.9-35.3-8.6-52.6c-0.4-10.7-1.2-38.4,9-40.8
		c-6.6,15.2-4.9,36.1-3.7,62.5c1.2,26.9,10.7,48,36.5,54.9c0.1,0.6,0.2,1.2,0.3,1.8C172.9,257.3,160.5,247,154,233.8z M192,135.3
		c1.5-4,4.5-10.6,8.6-14.6c-16.5,43.2-12.8,99.5-6.4,146.6l-3.5,0C184.1,228.7,178.1,172.1,192,135.3z M227.4,267.4l-3.5,0
		c4.9-32.9,4.2-110.1-8.6-146.8c3,2.8,5.1,6.8,6.7,10.4C237.3,165.1,232.1,230.3,227.4,267.4z M267,188.5
		c-4.3,22.1-11.5,38.3-34.1,44.3c0.1-1.2,0.2-2.5,0.3-3.7c29.4-10.6,33.6-33.7,35.2-56.7c1-14.8,1-41-5-55
		C276.3,126.7,270.1,172.6,267,188.5z"/>
	<path class="st14" d="M134.2,124.9c-3.6,1.9-6.9,4.2-9.9,6.8c1.5-5.2,1.9-10.6,1.4-15.8c-0.1-0.5-0.6-1-1.1-0.6
		c-3.3,2.2-6.2,4.9-8.7,7.8c0.7-6.5,0.7-13.3-0.9-19.6c-0.2-0.7-1-0.7-1.4-0.2c-2.2,3.2-3.8,6.8-5.1,10.6c-0.9-6-2.3-11.9-3.5-17.3
		c-0.7-3.1-4.6,3.7-7.2,16.6c-1.1-5.5-2.5-10.9-3.9-16c-0.2-0.8-1.2-0.6-1.4,0c-2.3,5.4-3.8,11.3-4.6,17.2c-1.1-5.3-2.6-11-4.6-14.9
		c-0.3-0.6-1.2-0.4-1.4,0.2c-1.8,5.5-2.5,11-2.4,16.5c-0.9-1.7-2-3.4-3.1-5.1c-0.3-0.5-1.2-0.5-1.4,0.2c-0.9,3.9-1.3,7.9-1.2,11.8
		c-2.7-4.6-6-9-9.8-12.9c-0.4-0.4-1.3-0.1-1.3,0.5c0.5,5.8,2,11.2,4.2,16.4c-3.5-2.5-10.2-5.4-9-2.8c3.1,7,6.6,14.9,12.3,20.5
		c-3.9,0.5-2.5,5.5-2.6,8.2c0,0.6-0.1,1.2,0,1.8c0.2,1.3,1,2.5,2.2,2.4c0.8,0.1,2.1,0.3,3.7,0.4c0.6,3.5,1.1,10.8,1.4,16.6
		c1.5,24.6,1.2,22,10.1,22c29.4,0,29.2,0.3,29,0.3c4.5,0,5.7-2.7,5.9-6.5c0-1,1.8-29.6,2-32c1.3-0.1,2.4-0.1,3.2-0.2
		c1.4,0.4,2.7-0.8,2.5-4.1c-0.2-2.9,1.2-7.7-3-8.5c4.9-5.5,8.5-12.3,10.6-19.4C135.5,125,134.8,124.6,134.2,124.9z M125.6,147.1
		L125.6,147.1c1.1,1.1,0.5,3.3,0.6,7.3c0,0.6,0,1.4-0.4,1.8c-3.2,0.8-42.7,0.6-53.4-0.2c-3.6-0.2-3.1-0.2-3.1-3.8
		c0-1.7-0.5-3.6,0.1-5.1c0.4-1.1,1.4-0.9,3.3-0.9c2.3,0,51.7,0.2,51.7,0.2C124.7,146.6,125.2,146.7,125.6,147.1z M120.2,160.3
		c-11.8,11.2-23.3,22.7-34.6,34.4c-1.6,0-1.6,0.1-3.1,0.1c12-12.6,24.3-24.8,36.9-36.8c0.3,0,0.6,0,0.9,0
		C120.4,158.6,120.3,159.4,120.2,160.3z M119.9,165.6c-9.9,9.5-19.6,19.2-29.2,29h-3c10.6-11,21.3-21.7,32.4-32.2
		C120,163.4,120,164.4,119.9,165.6z M119.6,171c-8,7.8-16,15.6-23.8,23.6h-3c8.8-9.1,17.8-18,26.9-26.8
		C119.7,168.8,119.6,170,119.6,171z M119.2,176.4c-6.2,6-12.3,12.1-18.3,18.3h-3c7.1-7.2,14.3-14.4,21.5-21.4
		C119.4,174.2,119.3,175.3,119.2,176.4z M118.9,181.8c-4.3,4.3-8.6,8.5-12.9,12.9c-1.2,0-1.9,0-3,0c5.3-5.4,10.7-10.8,16.1-16.1
		C119,179.6,119,180.7,118.9,181.8z M118.6,187.2c-2.5,2.5-5,5-7.5,7.5c-0.7-0.1-0.7,0-3-0.1c3.5-3.6,7.1-7.1,10.7-10.7
		C118.7,185.1,118.6,186.1,118.6,187.2z M117.9,193c-0.5,0.5-0.9,0.9-1.4,1.4c-1,0.5-2.2,0.5-3.5,0.5c1.8-1.8,3.6-3.6,5.4-5.4
		C118.4,190.6,118.4,192.1,117.9,193z M78.5,193.7c11.6-12.2,23.4-24,35.6-35.6c1.1,0,2.2,0,3.2-0.1c-12.5,11.9-24.8,24.2-36.7,36.7
		C79.7,194.7,78.8,194.5,78.5,193.7z M77.7,189.3c10.1-10.6,20.5-21,31.1-31.2c1,0,2.1,0,3.1,0c-11.5,11-22.8,22.4-33.8,33.9
		C77.9,191.3,77.8,190.4,77.7,189.3z M77.2,184.5c8.6-8.9,17.4-17.7,26.3-26.4c1,0,1.7,0,3.1,0c-9.9,9.6-19.6,19.3-29.2,29.2
		C77.4,186.5,77.3,185.5,77.2,184.5z M76.9,179.7c7-7.3,14.2-14.4,21.4-21.5c0.9,0,2,0,3.1,0c-8.2,8-16.3,16.1-24.3,24.4
		C77,181.6,76.9,180.6,76.9,179.7z M76.5,174.8c5.5-5.6,11-11.2,16.6-16.6c1,0,2,0,3,0c-6.6,6.4-13,12.9-19.4,19.5
		C76.7,176.7,76.6,175.7,76.5,174.8z M76.2,169.8c3.9-4,7.8-7.9,11.8-11.8c1,0,2,0,3,0c-4.9,4.8-9.8,9.7-14.6,14.7
		C76.4,171.7,76.3,170.8,76.2,169.8z M75.9,165c2.3-2.4,4.7-4.7,7-7c1,0,2,0,3,0.1c-3.3,3.3-6.6,6.5-9.8,9.8
		C76,166.8,76,165.9,75.9,165z M75.5,160.2c0.8-0.8,1.6-1.6,2.4-2.5c0.9,0,1.9,0.1,2.9,0.1c-1.7,1.7-3.4,3.4-5.1,5.1
		C75.7,162,75.6,161.1,75.5,160.2z M75.1,157.7c0.3,0,0.5,0,0.8,0c-0.2,0.2-0.4,0.4-0.7,0.7C75.2,158.1,75.2,157.9,75.1,157.7z
		 M75.9,115.5c1.2,10,4.7,19.6,7.3,29.4c0,0-2.3,0-2.3,0C76.6,136.8,74.4,125.6,75.9,115.5z M82.2,104.4c0.3,8.5,1.6,17,3,25.4
		c-1.1-3.6-2.5-7.1-4.1-10.5C80.8,114.4,81.1,109.4,82.2,104.4z M87.4,119.4c-0.6,8.4,0.3,16.9,2.8,24.9c0,0.2,0,0.4,0,0.6l-0.6,0
		c-2.5-13.5-5.4-27-5.9-40.7C85.1,108.2,86.6,115,87.4,119.4z M92.4,101.6c-1.3,27.5,0.8,29,1.3,43.3l-1.8,0
		C87.3,130.9,87.8,115.2,92.4,101.6z M96.9,144.9c-0.5,0-1,0-1.6,0c-0.5-13.7-2.6-16.1-1.4-42.3C97.3,115.6,100,131.8,96.9,144.9z
		 M102.7,101.4c-1.8,13.3,3.3,23.5-0.7,43.5l-3.5,0c2.2-8.9,1.7-18.4,0.2-27.7C99.9,110,101.5,104.4,102.7,101.4z M104.8,144.9
		c0,0-1.2,0-1.2,0c4.1-21.1-1.6-31.1,0.9-44.8C111.9,133.5,107.1,136.1,104.8,144.9z M112.8,107.7c-1.4,6.3-2,12.8-3,19.2
		c0-3.2-0.3-6.5-0.7-9.7C110.1,113.9,111.3,110.7,112.8,107.7z M118.7,145l-1.2,0c2.5-3.1,4.5-6.7,5.9-10.5c2.2-2.2,4.7-4.1,7.3-5.9
		C124.4,136,121.9,140.6,118.7,145z M115.6,145c-3.9,0,0,0-4.3,0c8.1-12.6,8.7-17.9,13.2-26.5C124.8,128,121.8,138,115.6,145z
		 M109.5,145c-0.3,0-2.9,0-3.2,0c2.7-10.3,8.3-19.9,16.5-26.6C118.7,126.6,117.9,132.2,109.5,145z M114.2,125.2
		c-1.3,1.7-2.4,3.4-3.5,5.2c1.3-7.6,1.9-15.4,3.6-22.9C115.3,113.2,115,119.4,114.2,125.2z M86.8,144.9c-0.6,0-1.5,0-2.2,0
		c-2.6-9.8-6.1-19.5-7.3-29.6C82.6,124.3,85.8,135,86.8,144.9z M75.4,134.2c-1.3-3-2.1-6.3-3.5-9.1c-1.8-3.5-3.9-6.8-5.6-10.3
		c3,3.6,5.6,7.5,7.8,11.6C74.3,129.1,74.8,131.7,75.4,134.2z M73.5,133.4c-1.2-1.5-2.6-2.9-4-4.2c-2-4.3-3.6-8.7-4.5-13.4
		C69,123.9,68.9,121.1,73.5,133.4z M79.2,144.8c0,0-0.1,0-0.6,0c-8.6-12-11.7-11.3-17.3-19.3C69.5,128.8,75,137,79.2,144.8z
		 M76.7,144.8c-0.4,0-3.9,0-4.3,0c-4.9-4.3-8.3-10.5-11.1-16.5C67,135.2,70,135.5,76.7,144.8z M122.9,144.9c-0.7,0-1.6,0-2.3,0
		c2.2-3.1,6.3-9.7,12.3-16.5C130.7,134.5,127.3,140.3,122.9,144.9z"/>
	<g>
		<path class="st15" d="M271.8,311.1c1.2,4.8,1.7,13.5,3.7,15.4c1,1,3.7,0.8,5.6,0.7c3-0.2,29.4,0,30.4,0c2.5,0,5.4,0.8,7.4-0.4
			c2.3-1.3,2-3.6,2.2-6.3c0.3-4.2,0.6-7.1,0.8-9C310.6,311.8,283.5,311.7,271.8,311.1z"/>
		<path class="st15" d="M269.5,309.4c0,0,0.1,0,0.1,0c0-0.1-0.1-0.1-0.1-0.2C269.5,309.3,269.5,309.4,269.5,309.4z"/>
		<path class="st15" d="M326.4,309.8C326.5,309.8,326.5,309.8,326.4,309.8C326.5,309.8,326.5,309.8,326.4,309.8
			C326.4,309.8,326.4,309.8,326.4,309.8z"/>
		<path class="st15" d="M323.9,308.9c-0.1,0.3-0.1,0.6-0.2,1c0.4,0,0.8,0,1.2,0c0-0.2,0-0.3,0-0.5
			C324.5,309.4,324.2,309.1,323.9,308.9z"/>
		<path class="st15" d="M285.9,298.2c-0.2,3.9-0.1,7.9,0.1,11.8c0.3,0,0.6,0,1,0c0-3.9,0-7.9-0.1-11.8L285.9,298.2z"/>
		<path class="st15" d="M270.5,298.1c-0.4,3.1-0.7,6.2-0.9,9.3c0.3,0.1,0.5,0.2,0.9,0.6c0.1-3.3,0.5-6.6,1.1-9.9L270.5,298.1z"/>
		<path class="st15" d="M267.1,308c0.3-0.2,0.5-0.3,0.8-0.5c0.2-3.2,0.5-6.3,0.9-9.5c-0.6,0-0.6,0-1.3,0
			C267.2,301.4,267,304.7,267.1,308z"/>
		<path class="st15" d="M273.9,298.1l-0.3,0c0.1,0.2,0.1,0.4,0.2,0.5C273.8,298.5,273.9,298.3,273.9,298.1z"/>
		<path class="st15" d="M313.3,298.3l-1.2,0c0.2,4,0.1,7.9-0.3,11.8c0.3,0,0.6,0,1,0C313.2,306.2,313.4,302.3,313.3,298.3z"/>
		<path class="st15" d="M316.2,298.3l-1.4,0c0.2,4,0,7.9-0.5,11.8c0.6,0,1.2,0,1.8,0C316.5,306.2,316.5,302.2,316.2,298.3z"/>
		<path class="st15" d="M326.5,308c0.3,0.1,0.6,0.3,0.9,0.5c0-3.4-0.2-6.8-0.5-10.2c-0.3,0-0.6,0-0.8,0
			C326.3,301.5,326.5,304.7,326.5,308z"/>
		<path class="st15" d="M328.9,309.6C328.9,309.6,329,309.6,328.9,309.6c0.2,0,0.3,0,0.4-0.1c0.9-0.8,0.5-2.5,0.5-3.9
			c0-2.7,0.8-6.2-1.4-7.1C328.8,302.2,329,305.9,328.9,309.6z"/>
		<path class="st15" d="M323.3,307.1c0.7-0.3,1.1,0.1,1.6,0.5c0-3.1-0.1-6.3-0.5-9.4c-0.6,0-0.3,0-1.4,0
			C323.3,301.3,323.4,304.2,323.3,307.1z"/>
		<path class="st15" d="M265.6,308.9c-0.2-3.6,0-7.2,0.5-10.8c-2.6,0.3-1.5,4.4-1.5,6.9C264.6,306,264.2,309.5,265.6,308.9z"/>
		<path class="st15" d="M288.4,298.2c0,3.9,0.1,7.9,0.1,11.8c0.4,0,0.8,0,1.2,0c0.1-3.9,0.2-7.9,0.3-11.8L288.4,298.2z"/>
		<path class="st15" d="M317.8,299.6c0.2,3.5,0.2,7-0.2,10.5c0.4,0,0.8,0,1.2,0c0.3-3.9,0.2-7.8-0.1-11.7l-0.2,0
			C318.5,299,318.6,299.5,317.8,299.6z"/>
		<path class="st15" d="M291.5,298.2c-0.1,3.9-0.2,7.9-0.3,11.8c0.3,0,0.7,0,1,0c0.2-3.9,0.2-7.9,0.3-11.8L291.5,298.2z"/>
		<path class="st15" d="M281.4,298.2l-0.7,0c-0.3,3.9-0.3,7.8,0,11.7c0.3,0,0.5,0,0.8,0C280.9,304.5,281.2,299.5,281.4,298.2z"/>
		<path class="st15" d="M304.8,298.3l-1.3,0c0.4,4,0.4,7.9,0.1,11.9c0.3,0,0.5,0,0.8,0C304.8,306.2,305,302.2,304.8,298.3z"/>
		<path class="st15" d="M298.5,298.2l-1.6,0c0,4-0.1,7.9-0.3,11.9c0.6,0,1.2,0,1.8,0C298.7,306.2,298.7,302.2,298.5,298.2z"/>
		<path class="st15" d="M279.1,298.1l-1.2,0c-0.4,3.9-0.5,7.7-0.2,11.6c0.4,0,0.9,0,1.3,0C278.8,305.9,278.8,302,279.1,298.1z"/>
		<path class="st15" d="M301.9,298.2l-0.9,0c-0.1,0.5-0.5,0.7-0.9,0.7c0.2,3.7,0.1,7.5-0.2,11.2c0.7,0,1.4,0,2.1,0
			C302.3,306.2,302.3,302.2,301.9,298.2z"/>
		<path class="st15" d="M284.3,298.2l-1.1,0c0,0.2-0.2,0.4-0.3,0.6c-0.3,3.7-0.3,7.4,0.1,11.2c0.5,0,1,0,1.4,0
			C284.2,306,284.2,302.1,284.3,298.2z"/>
		<path class="st15" d="M321.5,298.6c-0.3,0.1-0.7,0-0.9-0.3l-0.2,0c0.3,3.9,0.4,7.8,0.1,11.7c0.4,0,0.8,0,1.2,0
			C321.8,306.2,321.8,302.4,321.5,298.6z"/>
		<path class="st15" d="M276.4,298.1l-0.9,0c-0.5,3.8-0.7,7.7-0.5,11.5c0.4,0,0.8,0,1.3,0C275.9,305.8,275.9,302,276.4,298.1z"/>
		<path class="st15" d="M273.7,299.5c-0.2,0.2-0.6,0.3-0.9,0.2c-0.5,3.3-0.9,6.6-0.9,9.9c0.5,0,0.9,0,1.4,0.1
			C273.2,306.2,273.3,302.9,273.7,299.5z"/>
		<path class="st15" d="M310.5,298.3l-1.1,0c0.1,4,0,7.9-0.3,11.9c0.4,0,0.8,0,1.2,0C310.6,306.2,310.6,302.2,310.5,298.3z"/>
		<path class="st15" d="M294.1,298.2c0,4-0.1,7.9-0.3,11.9c0.4,0,0.9,0,1.3,0c0.2-4,0.3-7.9,0.3-11.9L294.1,298.2z"/>
		<path class="st15" d="M307.8,298.3l-1.4,0c0.2,4,0.1,7.9-0.4,11.9c0.5,0,1,0,1.5,0C307.8,306.2,307.9,302.2,307.8,298.3z"/>
		<path class="st15" d="M273.6,298.1l-0.5,0c-0.1,0.5-0.2,1-0.3,1.5c0.3,0.1,0.7,0,0.9-0.2c0-0.3,0.1-0.6,0.1-0.8
			C273.7,298.5,273.7,298.3,273.6,298.1z"/>
		<path class="st15" d="M321.5,298.6c0-0.1,0-0.2,0-0.3l-0.9,0C320.8,298.6,321.2,298.8,321.5,298.6z"/>
		<path class="st15" d="M282.9,298.7c0.2-0.1,0.3-0.3,0.3-0.6l-0.3,0C282.9,298.4,282.9,298.6,282.9,298.7z"/>
		<path class="st15" d="M300.1,298.9c0.4,0,0.8-0.2,0.9-0.7l-0.9,0C300.1,298.5,300.1,298.7,300.1,298.9z"/>
		<path class="st15" d="M318.6,298.3l-0.8,0c0,0.4,0.1,0.8,0.1,1.3C318.6,299.5,318.5,299,318.6,298.3z"/>
		<path class="st15" d="M267.9,308.5c-0.3,0.1-0.5,0.3-0.8,0.5c0,0.1,0,0.2,0,0.3c0.2,0,0.5,0,0.7,0.1
			C267.9,309,267.9,308.7,267.9,308.5z"/>
		<path class="st15" d="M324.9,309.4c0-0.3,0-0.5,0-0.8c-0.6-0.1-1.1-1.5-1.6-0.2c0,0.5,0,1-0.1,1.5c0.2,0,0.3,0,0.5,0
			c0.1-0.4,0.2-0.8,0.2-1C324.2,309.1,324.5,309.4,324.9,309.4z"/>
		<path class="st15" d="M269.5,308.2c0,0.3,0,0.7,0,1c0,0.1,0.1,0.1,0.1,0.2c0.3,0,0.5,0,0.8,0c0-0.1,0-0.1,0-0.2
			C270.1,308.8,269.8,308.4,269.5,308.2z"/>
		<path class="st15" d="M326.5,308.9c0,0.3,0,0.6,0,0.9c0,0,0,0,0,0c0.3,0,0.6,0,0.9-0.1c0-0.1,0-0.2,0-0.3
			C327.1,309.3,326.8,309.1,326.5,308.9z"/>
		<path class="st15" d="M264.9,298.6c0-0.1,0.1-0.1,0.2-0.2C265,298.5,265,298.6,264.9,298.6z"/>
		<path class="st15" d="M329.9,306.6c0,0.1,0,0.3,0,0.4C329.9,306.9,329.9,306.8,329.9,306.6z"/>
		<path class="st15" d="M265.5,298.2c0.1,0,0.1,0,0.2-0.1C265.6,298.2,265.6,298.2,265.5,298.2z"/>
		<path class="st15" d="M267.1,308c0,0.3,0,0.6,0,0.9c0.3-0.2,0.5-0.3,0.8-0.5c0-0.3,0-0.6,0-0.9C267.7,307.7,267.4,307.9,267.1,308
			z"/>
		<path class="st15" d="M264.6,299.1c-0.3,0.7-0.3,1.4-0.3,2.1C264.3,300.5,264.4,299.8,264.6,299.1z"/>
		<path class="st15" d="M264.7,299c0-0.1,0.1-0.2,0.1-0.3C264.8,298.8,264.7,298.9,264.7,299z"/>
		<path class="st15" d="M329.9,307.1c0,0.1,0,0.3,0,0.4C329.9,307.3,329.9,307.2,329.9,307.1z"/>
		<path class="st15" d="M324.9,308.6c0-0.3,0-0.6,0-0.9c-0.5-0.5-0.9-0.8-1.6-0.5c0,0.4,0,0.9,0,1.3
			C323.8,307.1,324.3,308.5,324.9,308.6z"/>
		<path class="st15" d="M327.4,309.5c0-0.3,0-0.7,0-1c-0.3-0.2-0.6-0.4-0.9-0.5c0,0.3,0,0.6,0,0.9
			C326.8,309.1,327.1,309.3,327.4,309.5z"/>
		<path class="st15" d="M266.1,298.1C265.8,298.1,265.8,298.1,266.1,298.1C266.1,298.1,266.1,298.1,266.1,298.1z"/>
		<path class="st15" d="M265.2,309c0.1,0,0.2,0.1,0.4,0.1c0,0,0-0.1,0-0.1C265.4,309,265.3,309,265.2,309z"/>
		<path class="st15" d="M329.6,309.1c0,0.1-0.1,0.1-0.1,0.2C329.6,309.3,329.6,309.2,329.6,309.1z"/>
		<path class="st15" d="M265.2,298.4c0.1,0,0.1-0.1,0.2-0.1C265.3,298.3,265.2,298.4,265.2,298.4z"/>
		<path class="st15" d="M329.9,307.6c0,0.1,0,0.2,0,0.3C329.9,307.8,329.9,307.7,329.9,307.6z"/>
		<path class="st15" d="M329.8,308.8c0,0.1,0,0.1-0.1,0.2C329.7,308.9,329.7,308.9,329.8,308.8z"/>
		<path class="st15" d="M329.9,308c0,0.1,0,0.2,0,0.3C329.9,308.2,329.9,308.1,329.9,308z"/>
		<path class="st15" d="M329.9,308.4c0,0.1,0,0.2,0,0.2C329.8,308.6,329.8,308.5,329.9,308.4z"/>
		<path class="st15" d="M269.5,307.4c0,0.3,0,0.6,0,0.8c0.3,0.2,0.6,0.6,0.8,1.1c0-0.4,0-0.9,0-1.3
			C270.1,307.6,269.8,307.5,269.5,307.4z"/>
		<path class="st15" d="M328.9,309.6C328.9,309.6,329,309.6,328.9,309.6C329,309.6,328.9,309.6,328.9,309.6
			C328.9,309.6,328.9,309.6,328.9,309.6z"/>
		<path class="st15" d="M264.6,305c0-0.7-0.1-1.3-0.1-2C264.5,303.6,264.6,304.3,264.6,305z"/>
		<path class="st15" d="M329.4,309.5c0,0,0.1-0.1,0.1-0.1C329.4,309.5,329.4,309.5,329.4,309.5C329.4,309.5,329.4,309.5,329.4,309.5
			z"/>
		<path class="st16" d="M330.3,297.9L330.3,297.9c-1.5-1.5-3.8-1.3-7.7-1.2c0.7-1.5,1.2-3,1.6-4.6c0.2-0.1,2.3-0.9,2.5-1
			c1.1-0.4,0.4-1.9-0.4-1.5c-0.5,0.2-1.1,0.4-1.6,0.7c0.6-3,0.8-6,0.5-9c0.2,0,2.2-0.6,2.5-0.7c1-0.3,0.6-1.8-0.4-1.5
			c-0.7,0.2-1.5,0.4-2.2,0.6c-0.3-2.2-0.9-4.5-1.7-6.7c0,0,2.4-1.3,2.4-1.3c0.9-0.5,0.1-1.8-0.8-1.4c-0.7,0.4-1.5,0.8-2.2,1.2
			c-0.8-1.7-1.7-3.3-2.9-4.8c0.6-0.5,1.2-1,1.8-1.6c0.8-0.7-0.3-1.8-1.1-1.1c-0.6,0.5-1.1,1-1.7,1.5c-1.2-1.4-2.5-2.6-4-3.6
			c0.1-0.2,0.7-2.4,0.7-2.6c0.3-1-1.2-1.4-1.5-0.4c-0.2,0.7-0.4,1.4-0.6,2.1c-9.5-5.9-22.9-5.6-32.4,0.3c-0.7-0.8-1.4-1.6-2.1-2.4
			c-0.7-0.8-1.8,0.4-1.1,1.1c0.6,0.7,1.3,1.4,1.9,2.1c-1.8,1.3-3.4,2.7-4.6,4c-0.3-0.9-0.6-1.7-0.9-2.6c-0.3-1-1.8-0.5-1.5,0.4
			c0.4,1.2,0.8,2.4,1.2,3.6c-1.9,2.6-3.2,5.2-4,8.1c-0.4-0.4-0.8-0.8-1.2-1.2c-0.8-0.6-1.9,0.5-1.1,1.1c0.7,0.6,1.3,1.2,1.8,2
			c-0.6,2.9-0.7,5.8-0.4,8.7c-0.5-0.2-0.9-0.5-1.4-0.7c-0.9-0.5-1.7,0.9-0.8,1.4c0.8,0.4,1.6,0.8,2.4,1.2c0.3,2.4,1,5.4,2,8.3
			c-5.1,0-7.6-0.7-8.4,2.7c-0.5,2.2,0.1,4,0,6.6c-0.3,5.1,1.5,4.9,7.2,5.2c1.4,5.1,1.7,14.1,4.2,16.6c1.9,1.9,1.8,0.9,37.1,1.1
			c2.5,0,5.6,0.9,8.2-0.6c3.9-2.2,2.3-5.3,3.8-16.8c2.1-0.1,3.9-0.2,5.2-0.3c0.5,0.2,1.1,0.1,1.7-0.3c1.3-1.1,1.2-2.9,1.2-4.3
			C331.3,303.5,332.3,300,330.3,297.9z M265.6,309.1c-1.7-0.3-0.8-2.7-1.2-6.1c-0.2-2.2-0.4-4.7,1.6-4.9
			C265.8,299.1,265.4,304.6,265.6,309.1z M300.9,258.4c0.7,0.1,1.3,0.2,2,0.3c-1,0.2-1.9,0.4-2.9,0.6
			C300.3,259,300.6,258.7,300.9,258.4z M306.8,274.4c1.5,0.3,3,0.4,3.4,0.3c1.7,2.6,3.1,5.4,4.2,8.3c-0.8-0.2-1.7-0.4-2.5-0.5
			c-1-0.2-1.4,1.4-0.4,1.5c1.1,0.2,2.1,0.4,3.1,0.7c0.1,0,0.3,0,0.4,0c0.8,2.3,1.3,4.7,1.7,7.1c-0.8-0.1-1.5-0.2-2.3-0.2
			c-1-0.1-1,1.5,0,1.6c0.8,0.1,1.7,0.1,2.5,0.2c0.1,1.1,0.2,2.3,0.2,3.5l-15.8-0.1c0.1-2.1,0.3-4.2,0.4-6.3c0.6-0.1,1.2-0.3,1.7-0.4
			c1-0.2,0.6-1.7-0.4-1.5c-0.4,0.1-0.8,0.2-1.2,0.3c0.1-3.2,0.2-6.5,0.1-9.7c0.4,0,1.6-0.8,1.9-1c0.8-0.6,0-1.9-0.8-1.4
			c-0.4,0.3-0.8,0.5-1.2,0.7c-0.2-2.7-0.5-5.3-1-7.9c0.7-0.4,1.3-0.9,1.9-1.4c0.8-0.6-0.3-1.7-1.1-1.1c-0.4,0.3-0.7,0.6-1.1,0.8
			c-0.4-1.7-0.8-3.4-1.4-5c4,2.9,7.4,6.3,10.2,10.3c-0.6,0-1.3-0.1-1.9-0.2C306.2,272.6,305.8,274.2,306.8,274.4z M314.8,298.3
			l1.4,0c0.4,3.9,0.3,7.9-0.1,11.8c-0.6,0-1.2,0-1.8,0C314.8,306.2,315,302.3,314.8,298.3z M312,298.3l1.2,0c0.2,4,0,7.9-0.5,11.8
			c-0.3,0-0.6,0-1,0C312.1,306.2,312.2,302.2,312,298.3z M309.3,298.3l1.1,0c0.2,4,0.1,7.9-0.3,11.9c-0.4,0-0.8,0-1.2,0
			C309.4,306.2,309.5,302.2,309.3,298.3z M306.3,298.3l1.4,0c0.1,4,0,7.9-0.3,11.9c-0.5,0-1,0-1.5,0
			C306.4,306.2,306.5,302.2,306.3,298.3z M303.5,298.2l1.3,0c0.2,4,0.1,7.9-0.4,11.9c-0.3,0-0.5,0-0.8,0
			C303.9,306.2,303.8,302.2,303.5,298.2z M283,296.6c-0.5-3.5-0.8-7.1-0.7-10.6c0.1,0,0.2,0,0.3,0c0.6-0.2,1.2-0.3,1.8-0.3
			c1-0.1,1-1.7,0-1.6c-0.7,0.1-1.3,0.2-2,0.3c0.2-2,0.5-4,0.9-6c0.9,0,1.8,0,2.6-0.1c1-0.1,1-1.6,0-1.6c-0.7,0-1.5,0.1-2.2,0.1
			c1.1-3.5,2.8-6.7,4.8-9.2c0.9,0.2,1.7,0.2,2.6,0.2c1-0.1,1-1.6,0-1.6c-0.5,0-0.9,0-1.4,0c2-2.1,4.3-3.8,7-4.5
			c1.3,3.4,2.2,7,2.7,10.5c-0.9-0.1-1.8-0.4-2.6-0.8c-0.9-0.4-1.7,0.9-0.8,1.4c1.2,0.6,2.3,0.9,3.6,1.1c0.4,3,0.5,6,0.5,9.1
			c-0.6-0.2-1.3-0.5-1.9-0.8c-0.9-0.5-1.7,0.8-0.8,1.4c0.8,0.5,1.7,0.8,2.6,1.1c-0.1,4-0.3,8.1-0.6,12.1L283,296.6z M298.4,310.1
			c-0.6,0-1.2,0-1.8,0c0.2-4,0.3-7.9,0.3-11.9l1.6,0C298.7,302.2,298.7,306.2,298.4,310.1z M295.4,298.2c0,4-0.1,7.9-0.3,11.9
			c-0.4,0-0.9,0-1.3,0c0.2-4,0.2-7.9,0.3-11.9L295.4,298.2z M292.5,298.2c0,4-0.1,7.9-0.3,11.8c-0.3,0-0.7,0-1,0
			c0.1-3.9,0.2-7.9,0.3-11.8L292.5,298.2z M290,298.2c-0.1,3.9-0.2,7.9-0.3,11.8c-0.4,0-0.8,0-1.2,0c0-3.9,0-7.9-0.1-11.8L290,298.2
			z M286.9,310c-0.3,0-0.6,0-1,0c-0.2-3.9-0.2-7.9-0.1-11.8l1,0C286.9,302.1,286.9,306,286.9,310z M282.9,298.2c0.2,0,0,0,1.4,0
			c-0.2,3.9-0.1,7.8,0.1,11.8c-0.5,0-1,0-1.4,0C282.4,303.6,282.9,299.2,282.9,298.2z M300.1,298.2c1.1,0,0.7,0,1.8,0
			c0.4,4,0.4,7.9,0.1,11.9c-0.7,0-1.4,0-2.1,0C300.3,306.1,300.3,302,300.1,298.2z M298.8,258.3c-0.5,0.5-1,0.9-1.5,1.4
			c-0.4-0.5-0.8-0.9-1.2-1.4C297.1,258.2,297.9,258.2,298.8,258.3z M294.2,258.4c0.3,0.4,0.6,0.8,1,1.1c-2-0.3-4-0.4-5.9-0.2
			C290.9,258.9,292.6,258.6,294.2,258.4z M267.9,309.3c-0.3,0-0.5,0-0.7-0.1c-0.2-3.6,0-7.5,0.5-11.2c0.6,0,0.7,0,1.3,0
			C268.4,301.7,268,305.5,267.9,309.3z M270.4,309.5c-0.3,0-0.6,0-0.9,0c0.1-3.5,0.5-7.5,1-11.3l1,0
			C270.8,301.9,270.4,306,270.4,309.5z M273.1,289.1c-0.6,0.4-1.2,0.8-1.8,1.3c-0.5-2.6-0.8-5.3-0.7-8c0.2-0.1,2.2-1,2.4-1.1
			c0.9-0.4,0.1-1.8-0.8-1.4c-0.5,0.2-1,0.5-1.5,0.7c0.3-3.2,1-5.6,2.1-7.9c0.2,0,1.9-0.3,2.2-0.4c1-0.2,0.6-1.7-0.4-1.5
			c-0.3,0.1-0.6,0.1-0.9,0.2c1.2-2,2.6-3.9,4.3-5.5c0.4,0.7,0.9,1.4,1.3,2c0.7,0.9,1.9,0,1.4-0.8c-0.5-0.7-1-1.5-1.5-2.3
			c1.1-0.9,3-1.8,4.3-2.3c0.4,0.5,0.8,1,1.2,1.5c0.3,0.3,0.8,0.3,1.1,0c0.6-0.6-0.2-1.3-0.7-2c2.9-0.9,6-1.1,9.1-0.7
			c-1.4,0.6-2.7,1.5-3.9,2.6c-0.2-0.6-0.3-1.1-0.4-1.7c-0.2-1-1.7-0.6-1.5,0.4c0.2,1,0.5,1.9,0.7,2.5c-1.9,2-3.5,4.3-4.7,6.6
			c-0.7-0.5-1.4-1.1-2-1.8c-0.7-0.7-1.8,0.4-1.1,1.1c0.7,0.8,1.6,1.5,2.5,2.1c-1.1,2.3-1.8,4.8-2.3,7.8c-0.6-0.3-1.1-0.6-1.5-1.1
			c-0.7-0.7-1.8,0.4-1.1,1.1c0.7,0.7,1.5,1.2,2.4,1.6c-0.3,2.5-0.4,5.1-0.3,7.7c-1.3,0-2.6-0.1-4-0.2c-1-0.1-1,1.4,0,1.6
			c1.3,0.2,2.7,0.3,4.1,0.2c0.1,1.7,0.3,3.4,0.6,5.1l-8.4,0c-0.5-1.4-0.9-2.9-1.3-4.4c0.6-0.7,1.4-1.3,2.1-1.7
			C274.7,289.9,273.9,288.5,273.1,289.1z M281.4,309.9c-0.3,0-0.5,0-0.8,0c-0.3-3.9-0.2-7.8,0-11.7l0.7,0
			C281.2,299.2,280.8,304.1,281.4,309.9z M279,309.8c-0.4,0-0.9,0-1.3,0c-0.3-3.9-0.3-7.8,0.2-11.6l1.2,0
			C278.8,302,278.8,305.9,279,309.8z M276.2,309.7c-0.4,0-0.9,0-1.3,0c-0.2-3.9,0-7.7,0.5-11.5l0.9,0
			C275.9,302,275.9,305.8,276.2,309.7z M273.3,309.6c-0.5,0-1,0-1.4-0.1c0-3.9,0.5-8,1.2-11.4c0.6,0,0.5,0,0.8,0
			C273.4,301.9,273.2,305.8,273.3,309.6z M313.6,327.3c-3.3-0.3-30.8-0.2-32.6-0.1c-6.2,0.4-6.5,0.3-8.2-10.2
			c-0.4-2.4-0.7-4.4-1.1-5.9c11.7,0.6,38.7,0.7,50.1,0.4C320.2,324.3,322.8,328.2,313.6,327.3z M317.7,298.3c0.3,0,0.7,0,1,0
			c0.3,3.9,0.4,7.8,0.1,11.7c-0.4,0-0.8,0-1.2,0C318.1,306.1,318.1,302,317.7,298.3z M320.3,298.3c0.4,0,0.7,0,1.2,0
			c0.3,4,0.4,7.9,0.2,11.7c-0.4,0-0.8,0-1.2,0C320.7,306.1,320.7,302.2,320.3,298.3z M320.9,296.8l-2.3,0c0-3-0.4-5.9-1.1-8.8
			c0.1,0,2.7-2.6,2.8-2.6c0.7-0.7-0.4-1.8-1.1-1.1c-0.7,0.7-1.4,1.4-2.1,2.1c-0.7-2.7-1.7-5.3-2.9-7.8c0.4-0.7,0.8-1.3,1.3-1.9
			c0.5-0.7-0.6-1.8-1.4-0.8c-0.3,0.4-0.5,0.7-0.8,1.1c-1.4-2.6-3.1-5-4.9-7.3c0.8-1.3,1.6-2.6,0.8-3.1c-0.3-0.2-0.9-0.1-1.1,0.3
			c-0.2,0.5-0.5,1.1-0.8,1.6c-0.8-0.8-1.5-1.7-2.4-2.5c0.3-0.6,0.5-1.2,0.7-1.9c0.3-1-1.2-1.4-1.5-0.4c-0.1,0.4-0.2,0.8-0.4,1.2
			c-1.4-1.3-3-2.5-4.5-3.6c2.8-0.7,5.5-1.3,8.4-1.1c-0.7,0.3-0.6,1.5,0.3,1.5c0.3,0,2.9-0.1,3.2-0.1c1.5,0.8,2.9,1.8,4.3,2.9
			c-0.6,0.1-1.2,0.2-1.8,0.4c-1,0.2-0.6,1.7,0.4,1.5c0.9-0.2,1.8-0.4,2.8-0.6c1.1,1.1,2.1,2.4,2.9,3.7c-0.7,0.1-1.3,0.3-2,0.4
			c-1,0.2-0.6,1.7,0.4,1.5c0.8-0.2,1.6-0.3,2.4-0.5c0.9,1.6,1.6,3.4,2.1,5.2c-0.5,0.1-0.9,0.2-1.4,0.2c-1,0.1-1,1.7,0,1.6
			c0.6-0.1,1.2-0.2,1.8-0.3c0.6,2.8,0.8,5.8,0.6,8.7c-0.6-0.2-1.2-0.4-1.8-0.6c-1-0.3-1.4,1.2-0.4,1.5c0.7,0.2,1.4,0.5,2,0.7
			C323.1,290.8,322.2,293.9,320.9,296.8z M324.9,309.9c-0.5,0-1.1,0-1.7,0.1c0.2-3.7,0.2-7.4-0.2-11.7c1,0,0.8,0,1.4,0
			C324.8,302.3,325,306.4,324.9,309.9z M327.4,309.8c-0.3,0-0.6,0-0.9,0.1c0-1.7,0.2-5.9-0.5-11.6c0.3,0,0.6,0,0.8,0
			C327.2,302.1,327.4,306.2,327.4,309.8z M329.4,309.5c-0.1,0-0.3,0.1-0.4,0.1c0.1-3-0.1-7.1-0.5-11.1c2.2,0.9,1.4,4.4,1.4,7.1
			C329.8,306.9,330.2,308.7,329.4,309.5z"/>
		<path class="st17" d="M311,253c1.1-2.1-0.8-2.7-1.9-2.6c0.5-2-1.1-2.5-2.5-1.5c-0.2-2.5-2.8-2.1-3.9,0c-0.6-1.1-1.6-1.8-2.8-0.7
			c-2.3,2.2-0.5,6.9,0.7,9.5c0.6,1.3,1.4,2.4,3.4,2.2c2.9-0.3,8-3.8,8.2-5.7C312.3,253.4,311.7,253,311,253z"/>
	</g>
	<path class="st14" d="M375.5,186.1L375.5,186.1c-2.2-2.2-6-1.5-11.3-1.5c8.1-4.9,14.4-12.7,13.8-21.3c-0.2-3.4-2.9-3.3-5.8-3.3
		c-1.8,0-3.6,0.2-5.4,0.5c5.8-15.8-3.1-30.1-5.1-31c-2.1-0.9-5.2,2.1-7.1,3.9c-0.8-1.8-2-3.4-3.5-4.8c-1.3-1.1-2-1.1-3.2,0
		c-1.7,1.5-3.4,3.5-4.5,5.7c-1-2.7-4.6-11.5-7.5-11.4c-1.2,0-1.9,1.6-2.5,2.4c-1,1.6-1.8,3.3-2.6,5c-2-2.5-4.6-4.6-7.6-5.9
		c-0.4-0.1-0.8,0.1-1,0.4c-1.4,2.5-2.8,4.9-3.9,7.5c-1.6-2.2-3.9-4.6-6.4-4.2c-3.1,0.6-4.5,6-5.3,9.3c-1.4-1.6-6.5-6.8-8.5-6.9
		c-2.7-0.1-3.1,4.9-3.4,6.7c-0.9,6-0.7,12.8,0.7,18.8c-1.7-0.4-3.6-0.7-5.4-0.9c-0.4,0-0.7,0.3-0.9,0.7c-1,2.6-0.1,5.1,0.7,7.6
		c2.3,7.6,5.6,15.1,11,20.9c-6.8,0-9.9-0.9-10.9,3.4c-0.7,2.7,0.2,5.1,0,8.4c-0.3,6.4,1.9,6.1,9.1,6.5c1.8,6.4,2.1,18.1,5.4,21.2
		c1.9,1.9,5.6,1.6,8.6,1.4c3.8-0.2,37.6,0,38.6,0c3.1,0,7.2,1.1,10.4-0.7c4.9-2.8,2.9-6.8,4.9-21.4c2.8-0.1,5.1-0.2,6.7-0.4
		c0.7,0.2,1.4,0.2,2-0.4c2.2-1.8,1.2-4.5,1.5-8.6C377.1,191,377.3,187.9,375.5,186.1z M295.7,200.6c-4.7-0.4-4.1-0.4-4.1-5.7
		c0-2.4-1.1-7.1,0.8-8.5c0.9-0.6,1.4-0.4,10.1-0.4c7.4,7,18.8,10.4,28.4,6.4c10.1,1.3,21.2-1.7,30.1-6.2c11.1,0,14.1-1.3,14.3,4.6
		c0,2.1-0.3,3.5-0.1,6.1c0,0.8,0.1,1.6,0,2.4c-0.1,0.5-0.3,1.1-0.7,1.4c-0.1,0-0.4,0.1-0.5,0.1c-0.4,0.1-0.9,0.1-1.5,0.2
		C360.7,202.1,309.4,201.7,295.7,200.6z M341.3,223.3c-29.4,0-26.4,0-28.5,0.1c-7.5,0.5-8.3,0.1-9.9-9.3c1.4,0.9,2.8,1.8,4.2,2.6
		c0.3,0.2,0.8,0.1,1.1-0.1c0.9-1,1.8-2.1,2.8-3.1c3.2,2.9,1.8,2.8,6.6-1c6.2,5.3,4.8,5.4,7.7,1.1c2.7,2.9,1.9,2.9,5.6-1.2
		c3.7,5.1,2.5,5.1,6.9,0.5c3.7,2.8,2.6,2.8,6.2-0.6c1.2,1.1,2.4,2.2,3.7,3.2c1,0.8,1.4-0.3,3.6-3c3.3,3,2.3,3,5.8-0.6
		c4.2,4.4,3.3,4,5.7,0.5c0.4,0.4,0.8,0.9,1.2,1.3c-0.3,4.4,0.1,7.3-2.9,9C358.4,224.4,357.8,223.3,341.3,223.3z M306.9,210
		c0.9,0.8,1.7,1.6,2.6,2.4c-0.7,0.8-1.5,1.7-2.2,2.5c-1.2-0.8-2.4-1.5-3.6-2.3C304.8,211.7,305.9,210.8,306.9,210z M314.2,209.8
		c0.6,0.5,1.2,1.1,1.8,1.6c-0.9,0.7-1.7,1.4-2.6,2.1c-0.5-0.4-0.9-0.9-1.4-1.3C312.8,211.4,313.5,210.6,314.2,209.8z M321.3,209.5
		c0.9,0.9,1.7,1.8,2.6,2.8c-0.5,0.7-1,1.5-1.5,2.2c-1.2-1-2.4-2.1-3.6-3.1C319.7,210.8,320.5,210.2,321.3,209.5z M328.3,209
		c0.5,0.6,0.9,1.3,1.4,1.9c-0.8,0.8-1.5,1.7-2.3,2.5c-0.4-0.4-0.8-0.9-1.2-1.3C326.9,211.1,327.6,210,328.3,209z M333.5,209.4
		c0.9,0.8,1.8,1.6,2.8,2.4c-0.7,0.7-1.4,1.5-2.1,2.2c-0.7-1-1.4-2-2.2-3C332.5,210.5,333,210,333.5,209.4z M341,209.3
		c0.5,0.6,1.1,1.2,1.7,1.8c-0.6,0.6-1.3,1.2-1.9,1.8c-0.6-0.4-1.2-0.9-1.8-1.3C339.7,210.9,340.4,210.1,341,209.3z M347.3,209.2
		c0.9,0.8,1.7,1.5,2.6,2.3c-0.6,0.7-1.2,1.5-1.8,2.3c-1-0.8-2-1.7-2.9-2.6C345.9,210.5,346.6,209.8,347.3,209.2z M354.2,209.2
		c0.5,0.5,1,1,1.5,1.6c-0.6,0.6-1.2,1.3-1.8,1.9c-0.5-0.5-1-0.9-1.5-1.4C353,210.6,353.6,209.9,354.2,209.2z M359.7,209.3
		c0.6,0.7,1.2,1.3,1.8,2c-0.4,0.6-0.8,1.1-1.2,1.7c-0.7-0.7-1.4-1.5-2.1-2.2C358.7,210.3,359.2,209.8,359.7,209.3z M364.5,207.3
		c-0.7,0.8-1.3,1.6-1.9,2.4c-3.3-3.7-2.5-3.5-5.6-0.3c-3.3-3.4-2.4-3.4-5.9,0.6c-4.4-4-3.1-4-7.1-0.2c-3.8-4-2.2-3.9-6.4,0.7
		c-4.9-4-3.5-4.4-6.6-1c-3.2-4.4-2.4-4.2-6,1.2c-1-1-1.9-2.1-2.9-3.1c-0.2-0.3-0.8-0.4-1.1-0.1c-1.2,0.9-2.3,1.8-3.5,2.7
		c-4.1-3.6-2.8-3.6-6.8,0.8c-4.5-4.1-2.7-4.2-8.4,0.3c-0.5-3-1-6.2-1.6-8.6c15.3,0.8,49.6,0.9,64.1,0.5
		C364.8,204.3,364.6,205.7,364.5,207.3z M290.6,157c14.5,1.6,24.3,11.6,32,23c0.8,2.2,1.9,4.3,3,6.2v0c1.1,1.8,2.3,3.4,3.6,5
		c-8.2,2.8-17.4,0.3-24-5.1l0,0C295.4,178.1,289.8,160.8,290.6,157z M303.6,143.9c1,0.1,2.3,2.7,2.8,3.3c4.1,6,5.8,9.6,5.8,9.6
		c0.2,3.1,0.6,6.3,1.2,9.4c-2.9-2.8-6.2-5.2-9.7-7C301.5,151.8,302.1,143.7,303.6,143.9z M358.5,144.2c2.4,6.1,2.4,12.8,0.2,18.9
		c-5.4,2.5-8.9,5.5-11.3,7.6c0.6-4.5-0.1-9-1.7-13.2C348.8,152,353.1,147.5,358.5,144.2z M376.2,164.8c0.7,4.7-3.6,10.5-6.7,13.5
		c-7.9,7.6-23.1,13.4-35.8,12.7c2.5-1.6,4.8-3.6,6.6-5.6l0,0c3-3.4,5.3-7.4,6.4-11.8c5.3-4.8,12.3-10.5,22.4-11.7
		C372.1,161.6,375.6,161.1,376.2,164.8z M327.8,141.9c2-3.2,2.5-1.7,4.8,0.3c13.9,12,18.5,30,5.2,43.2v0c-2.3,2.3-4.6,3.9-6.9,5.1
		c-1.7-1.9-2.8-3.6-3.8-5.2v0C319,171.7,320.6,153.4,327.8,141.9z M321,174.7c-1.7-2.2-3.5-4.3-5.3-6.3c0-0.1,0-0.1,0-0.2
		c-2.6-10.8-2-21.1-1.1-23.1c0.5-1.1,0.5-1.2,1.5-0.5c1.3,0.9,4.1,6.5,5,9.2C319.5,160.6,319.4,167.9,321,174.7z M359.7,131.8
		c1-0.4,0.8-0.6,1.7,0.1c1,0.7,9.5,14.2,3.3,29.1c-1.3,0.3-2.6,0.8-3.8,1.2c2-6.5,1.6-13.5-1.1-19.8c-0.2-0.4-0.8-0.5-1.2-0.3
		c-1.1,0.6-2.1,1.3-3.1,2c0.7-2.9,0.7-6-0.2-8.9C356.5,134,358.1,132.5,359.7,131.8z M347.9,131.1c1.3-1.5,1.2-1.9,2.6-0.4
		c3.5,3.8,4.8,9.4,2.4,15.4c-2.4,2-4.6,4.3-6.4,6.9c0.1-5.4-0.6-10.8-2.2-16C344.9,134.7,346.4,132.7,347.9,131.1z M337,126.1
		c5.7,7.6,8.1,18.7,7.6,28.9c-2.2-4.8-5.2-8.7-8.7-12.2c-0.4-3.8-1.8-7.6-3.9-10.8C335.8,123.7,335.9,124.6,337,126.1z M323.3,126.4
		c5.4,2.6,9.2,8.4,10.5,14.2c-4.7-4.5-6.1-3.6-9.9,4.8c-0.9-4-2.3-7.9-4.5-11.4C319.9,133,320.1,132.1,323.3,126.4z M311.6,130.2
		c3.7-1.8,9.8,9.3,11,18.4c-0.3,0.8-0.6,1.7-0.8,2.5c-6.2-13.3-10.2-10.2-9.8,1.4c-1.3-2.4-3.2-5.6-5.1-7.8
		C308.2,138.3,309,131.5,311.6,130.2z M297.8,132.5c1.4-0.6,7.1,5.6,8.3,7.1c-0.2,1.2-0.5,2.3-0.7,3.5c-5.7-4.6-5.4,7.8-3.8,15
		c-1.4-0.6-2.8-1.1-4.2-1.6C294.8,146.4,296.5,133.1,297.8,132.5z"/>
</g>
</svg>
