<?xml version="1.0" encoding="utf-8"?>
<!-- Generator: Adobe Illustrator 21.1.0, SVG Export Plug-In . SVG Version: 6.00 Build 0)  -->
<svg version="1.1" id="Calque_1" xmlns="http://www.w3.org/2000/svg" xmlns:xlink="http://www.w3.org/1999/xlink" x="0px" y="0px"
	 viewBox="0 0 432 432" style="enable-background:new 0 0 432 432;" xml:space="preserve">
<style type="text/css">
	.st0{fill:#AE3034;}
	.st1{fill:#3E904D;}
	.st2{fill:#F7EB5B;}
	.st3{fill:#221F20;}
	.st4{fill:#BC9A72;}
	.st5{fill:#FFFFFF;}
	.st6{fill:#E9963E;}
	.st7{fill:#EFB156;}
	.st8{fill:#5EB057;}
	.st9{fill:#A27D56;}
	.st10{fill:#BD8346;}
	.st11{fill:#DD658D;}
	.st12{fill:#404041;}
	.st13{fill:#81BF8E;}
	.st14{fill:#ED7E87;}
	.st15{fill:#B0202B;}
	.st16{fill:#BA9453;}
	.st17{fill:#B99352;}
	.st18{fill:#45A49C;}
	.st19{fill:#59B178;}
	.st20{fill:#C9A25F;}
	.st21{fill:#BCBDBF;}
	.st22{fill:#C7345D;}
	.st23{fill:#2E3192;}
	.st24{fill:#8CC63F;}
	.st25{fill:#22B573;}
	.st26{fill:#333333;}
	.st27{fill:#B1A097;}
	.st28{fill:#574B43;}
	.st29{fill:#85328A;}
	.st30{fill:#53A7DB;}
	.st31{fill:#912D61;}
	.st32{fill:#835F41;}
	.st33{fill:#929496;}
	.st34{fill:#808080;}
	.st35{fill:#6F4E2F;}
	.st36{fill:#A6A8AA;}
	.st37{fill:#DF643A;}
	.st38{fill:#98C355;}
	.st39{fill:#D35998;}
	.st40{fill:#6F665A;}
	.st41{fill:#BFB49D;}
	.st42{fill:#AE82B3;}
	.st43{fill:#B3B3B3;}
	.st44{fill:#5E328B;}
	.st45{fill:#DA404D;}
	.st46{fill:#A994C1;}
	.st47{fill:#8B575B;}
	.st48{fill:#C9C0AF;}
	.st49{fill:#A67C52;}
	.st50{fill:#86A391;}
	.st51{fill:#6595A9;}
	.st52{fill:#483E49;}
	.st53{fill:#F6BA00;}
	.st54{fill:#FC8080;}
	.st55{fill:#1A1A1A;}
	.st56{fill:#749FA8;}
	.st57{fill:#ABC337;}
	.st58{fill:#F67E20;}
	.st59{fill:#52A9B2;}
	.st60{fill:#925A8B;}
	.st61{fill:#DD8383;}
	.st62{fill:#929C3B;}
	.st63{fill:#4D4D4D;}
	.st64{fill:#C69C6D;}
	.st65{fill:#DBB753;}
	.st66{fill:#9EB9B4;}
	.st67{fill:#F2F2F2;}
	.st68{fill:#E2C87F;}
	.st69{fill:#E8BDC4;}
	.st70{fill:#D86D29;}
	.st71{fill:#E0CDAD;}
	.st72{fill:#E6E6E6;}
	.st73{fill:#CCD6CE;}
	.st74{fill:#9FD3C7;}
	.st75{fill-rule:evenodd;clip-rule:evenodd;}
	.st76{fill:#E5BE51;}
	.st77{fill:#B3A693;}
	.st78{fill:#717370;}
	.st79{fill:#9FB14D;}
	.st80{fill:#736357;}
	.st81{fill:#51642D;}
	.st82{fill:#743315;}
	.st83{fill:#0071BC;}
	.st84{fill:#9C1B20;}
	.st85{fill:#009245;}
	.st86{fill:#F6E6CC;}
	.st87{fill:#84CBCB;}
	.st88{fill:#7D9B39;}
	.st89{fill:#3C4E5C;}
	.st90{fill:#998675;}
	.st91{fill:#C7B299;}
	.st92{fill:#9B2F10;}
	.st93{fill:#E7A136;}
	.st94{fill:#978E43;}
	.st95{fill:#7D5E18;}
	.st96{fill:#F2C545;}
	.st97{fill:#E07D28;}
	.st98{fill:#E0D2BE;}
	.st99{fill:#C4A18D;}
	.st100{fill:#BCBD84;}
	.st101{fill:#5F645E;}
	.st102{fill:#CAC2C2;}
	.st103{fill:#959736;}
	.st104{fill:#B0D24A;}
	.st105{fill:#754C24;}
	.st106{fill:#603813;}
	.st107{fill:#8C4A33;}
	.st108{fill:#0B493A;}
	.st109{fill:#C17953;}
	.st110{fill:#F7C64D;}
	.st111{fill:#005371;}
	.st112{fill:#D3E2DC;}
	.st113{fill:#3E8A64;}
	.st114{fill:#299798;}
	.st115{fill:#731115;}
	.st116{fill:#4F4544;}
	.st117{fill:#4C6047;}
	.st118{fill:#4C301C;}
	.st119{fill:#867274;}
	.st120{fill:#C13F47;}
	.st121{fill:#BC8AA8;}
	.st122{fill:#634E42;}
	.st123{fill:#E1B8D7;}
	.st124{fill:#6D866B;}
	.st125{fill:#422918;}
	.st126{fill:#925F36;}
	.st127{fill:#1D1D1B;}
	.st128{fill:#00A099;}
	.st129{fill:#F8B133;}
	.st130{fill:#006633;}
	.st131{fill:#683B11;}
	.st132{fill:#B17F49;}
	.st133{fill:#A3897A;}
	.st134{fill:#E488B5;}
	.st135{fill:#93C01F;}
	.st136{fill:#EDE287;}
	.st137{fill:#E9CB9A;}
	.st138{fill:#EAB8CC;}
	.st139{fill:#7E4E24;}
	.st140{fill:#E5332A;}
	.st141{fill:#F29100;}
</style>
<g>
	<path class="st1" d="M295.9,185.2c-0.3,0-0.5,0-0.8,0c-0.3,0-0.5,0-0.8-0.1c0-0.2,0-0.4,0-0.5c0.4-2.4,0.6-4.8,0.5-7.2
		c-0.2-5.4-2-10.2-5.2-14.5c-1.8-2.4-4-4.3-6.8-5.5c-2.5-1.1-5.1-1.4-7.7-0.3c-3,1.3-5.3,3.4-7,6.2c-2.1,3.3-3.8,6.8-5,10.6
		c-1,2.9-1.9,5.9-2.9,8.8c-0.4,1.3-0.9,2.6-1.3,3.8c-0.7-0.3-1.3-0.6-1.9-0.8c-0.6-0.2-1.3,0.2-1.6,0.7c-0.3,0.6-0.3,1.1,0.1,1.6
		c0.3,0.3,0.6,0.5,1,0.8c0.4,0.3,0.8,0.6,1.3,0.9c-1,3.2-1.8,6.4-3.3,9.3c-0.5,0.9-1,1.7-1.6,2.5c-0.5,0.6-1.1,1.1-1.7,1.4
		c-3.2,1.8-6.7,0.1-8-2.2c-0.6-1-1-2.2-1.2-3.4c-0.5-2.7-0.5-5.4-0.5-8.1c0.1-5.8,0.8-11.5,1.3-17.3c0.3-3,0.6-5.9,0.9-8.9
		c0.1-1.2,0.3-2.4,0.4-3.6c0.2,0,0.3-0.1,0.4-0.1c0.7,0,1.4,0.1,2.1,0.1c0.5,0,1,0,1.4-0.1c0.8-0.2,1.2-0.8,1.1-1.6
		c-0.1-0.7-0.6-1.2-1.4-1.3c-0.2,0-0.5,0-0.7,0c-0.9-0.1-1.8-0.1-2.7-0.2c0-0.4,0-0.6,0-0.9c0.1-3.3,0.3-6.6,0.2-9.9
		c0-3.2-0.3-6.4-0.5-9.6c-0.2-3.8-0.6-7.5-1.4-11.3c-0.9-4.3-2.1-8.5-4.3-12.3c-1.2-2.1-2.6-4-4.3-5.7c-2.4-2.4-5.3-3.6-8.8-3.3
		c-2,0.2-3.7,0.9-5.3,1.9c-3.9,2.4-6.8,5.7-8.9,9.8c-2.3,4.3-3.8,9-4.8,13.8c-1.8,8.2-2.5,16.6-2.7,25c-0.1,1.6-0.1,3.3-0.1,4.9
		c0,3.3,0,6.5,0,9.8c0,1.5,0,3-0.3,4.5c-0.4,2.3-1.2,4.4-2.8,6.2c-2,2.2-4.4,4-7.4,4.4c-4.4,0.6-8.4-0.6-11.8-3.5
		c-3.1-2.8-5.2-6.3-6.3-10.3c-0.1-0.2-0.1-0.5-0.2-0.8c0.4,0.1,0.7,0.1,1,0.2c0.6,0.1,1.1-0.1,1.4-0.6c0.3-0.5,0.3-1,0-1.6
		c-0.4-0.6-1-0.9-1.7-1c-0.5,0-1,0-1.5,0c-0.1-0.3-0.1-0.5-0.1-0.6c-0.4-2.7-0.5-5.5-0.5-8.2c0.1-3.6,0.1-7.2,0.1-10.9
		c0-2.7-0.7-5.2-1.8-7.6c-1.1-2.4-2.8-4.3-5.3-5.5c-2.9-1.4-6-1.5-9.1-0.5c-5.6,1.8-9.4,5.6-11.9,10.8c-1.6,3.4-2.6,7-3.3,10.7
		c-0.1,0.2-0.1,0.5-0.2,0.8c-0.4-0.1-0.7-0.3-1.1-0.3c-0.6-0.1-1.1,0.1-1.5,0.6c-0.4,0.5-0.4,1.1,0,1.6c0.3,0.3,0.6,0.6,1,0.7
		c0.4,0.2,0.8,0.3,1.2,0.5c-1.4,12.1-0.1,24,2.6,35.8c-0.1,0-0.2,0.1-0.3,0.1c-0.4,0-0.8,0-1.2,0c-0.3,0-0.6,0-1,0
		c-0.7,0.1-1.2,0.6-1.2,1.3c-0.1,0.7,0.4,1.3,1.1,1.6c0.2,0.1,0.4,0.1,0.7,0.1c1,0.1,1.9,0.2,2.9,0.3c0.1,0.3,0.3,0.7,0.4,1
		c0.9,2.5,2.1,4.8,4,6.7c2.3,2.4,5.1,4.1,8.1,5.4c4,1.8,8.3,3.1,12.7,3.8c2.1,0.4,4.3,0.6,6.5,0.6c0.5,0,1.1-0.1,1.7-0.1
		c-0.2,0.5-0.4,0.9-0.5,1.3c-0.2,0.8,0.1,1.5,0.8,1.8c0.6,0.3,1.3,0.1,1.8-0.5c0.2-0.2,0.3-0.4,0.4-0.7c0.4-0.7,0.7-1.4,1-2.2
		c0.1-0.3,0.3-0.5,0.6-0.5c2.2-0.5,4.4-1,6.6-0.8c1.4,0.1,2.6,0.5,3.7,1.3c1.7,1.3,2.9,2.9,3.8,4.8c1,2,1.6,4.1,1.9,6.3
		c0.5,4,0.9,8,1.4,12c0,0.4,0,0.8,0.1,1.3c-0.6-0.1-1.1-0.2-1.5-0.2c-0.5,0-1,0-1.4,0.1c-0.6,0.2-1,0.8-0.9,1.3c0,0.6,0.3,1.1,1,1.3
		c0.3,0.1,0.7,0.2,1,0.2c0.7,0.1,1.4,0.2,2.2,0.3c0.9,11.6,0.7,23.2,0.3,34.8c-0.5-0.1-0.9-0.1-1.3-0.1c-0.2,0-0.3,0-0.5,0
		c-0.8,0-1.5,0.5-1.6,1.3c-0.1,0.7,0.4,1.4,1.2,1.6c0.7,0.1,1.3,0.2,2,0.3c0,0.4,0,0.7,0,1c-0.1,1.9-0.2,3.8-0.2,5.7
		c-0.2,6.8-0.3,13.7-0.5,20.5c-0.1,2.3-0.1,4.6-0.1,6.9c0,0.3,0,0.5,0.1,0.8c5,1.5,11.9,2.7,21.2,2.3c6.7-0.3,11.9-1.4,16-2.7
		c0.1-1.8,0.3-3.6,0.4-5.4c0.1-2.2,0.1-4.3,0.2-6.5c0-0.2,0-0.4,0.1-0.6c0.6,0.1,1.1,0.1,1.6,0.1c0.7,0,1.2-0.4,1.4-1
		c0.2-0.6,0-1.3-0.6-1.6c-0.5-0.3-1-0.4-1.5-0.5c-0.3-0.1-0.7-0.1-1.1-0.1c-0.2-7.7,0.1-15.3,0.2-23c0.4,0.2,0.6,0.3,0.9,0.4
		c0.7,0.2,1.4,0,1.8-0.6c0.4-0.6,0.3-1.3-0.3-1.8c-0.4-0.3-0.9-0.6-1.4-0.8c-0.3-0.1-0.6-0.2-0.9-0.3c0-0.4,0-0.7,0-0.9
		c0.2-3,0.4-6.1,0.7-9.1c0.4-4.2,1.3-8.2,2.8-12.2c0.5-1.4,1.1-2.9,2.1-4.3c0.3,0.5,0.5,1,0.7,1.4c0.5,0.8,1.4,1,2.1,0.6
		c0.7-0.4,0.9-1.2,0.5-2.1c-0.4-0.9-0.8-1.8-1.2-2.7c2-2.6,11.1-8.8,13.7-9.3c0.4,0.7,0.8,1.5,1.2,2.2c0.3,0.6,0.6,1.3,1,1.9
		c0.5,0.8,1.3,0.9,2,0.5c0.7-0.4,0.9-1.2,0.5-2c-0.4-0.7-0.8-1.4-1.1-2.1c-0.3-0.7-0.7-1.4-1-2c0.1-0.1,0.1-0.2,0.1-0.2
		c0.7-0.5,1.5-0.9,2.2-1.4c5.7-3.5,10.8-7.8,14.9-13.1c3.1-3.9,5.7-8.2,8-12.6c0.2-0.3,0.3-0.6,0.5-0.9c0.4,0.2,0.8,0.3,1.1,0.5
		c0.7,0.3,1.4,0.6,2.2,0.8c0.7,0.2,1.5-0.2,1.8-0.9c0.3-0.6,0.1-1.4-0.6-1.8c-0.3-0.2-0.6-0.3-0.9-0.4c-0.8-0.3-1.5-0.6-2.3-1
		c2-4.4,3.8-8.7,5-13.3c0.4,0,0.7,0.1,1.1,0.1c0.3,0,0.6,0,1,0c1,0,1.7-0.6,1.8-1.4C297.4,186,296.8,185.3,295.9,185.2z"/>
	<g>
		<path class="st0" d="M250.4,315.7c0.7-13.5-3.7,0-29.6,1.2c-36.5,1.6-35.1-21.5-35.2,12.3c-0.1,18.4-1.8,32.7,12.7,35.4
			c54,10.3,48.7-11.4,52-47.9C250.4,316.6,250.4,316,250.4,315.7z"/>
		<g>
			<path class="st2" d="M196,342.3c4.6,2.2,9.3,4.1,14.6,4.5c5.2,0.4,10.1-0.3,14.9-1.9c3.2-1.1,6.1-2.7,8.9-4.4
				c2.1-1.2,4.2-2.5,6.3-3.8c2.7-1.7,5.5-3.2,8.4-4.4c0.3-3.6,0.5-7.4,0.8-11.4c-0.3,0.2-0.6,0.3-0.9,0.5c-3.3,2-6.6,4-9.9,6
				c-3.2,2-6.3,4.2-9.7,5.8c-4.6,2.2-9.6,3.2-14.8,2.9c-3.1-0.2-6.2-0.7-9.3-1.3c-3.8-0.7-7.3-2.1-10.4-4.2
				c-1.3-0.9-2.7-1.7-4.1-2.6c-1.6-1-3.4-1.8-5.4-2.1c0,1.1,0,2.2,0,3.4c0,2.9-0.1,5.6-0.1,8.2c0.9,0.3,1.8,0.7,2.7,1.1
				C190.8,339.8,193.4,341.1,196,342.3z"/>
			<g>
				<path class="st1" d="M233.3,344.7c-3.7,2.1-7.6,3.7-11.9,4.5c-6.9,1.3-13.7,1-20.3-1.4c-3.8-1.4-7.4-3.2-11-5
					c-1.5-0.7-3-1.5-4.6-2.1c0,3,0.1,5.9,0.4,8.4c2,0.3,3.9,0.8,5.9,1.5c2.5,0.9,5,2.1,7.4,3.3c4.6,2.3,9.6,3.6,14.9,3.8
					c5.4,0.2,10.6-0.8,15.4-3.1c2.7-1.3,5.1-3,7.5-4.6c3.5-2.4,7.2-4.5,11.2-6.1c0.4-2.5,0.7-5.3,0.9-8.2c-1.3,0.6-2.7,1.3-3.9,2
					C241.1,340.1,237.2,342.5,233.3,344.7z"/>
				<path class="st1" d="M250.4,315.7c0.2-3.6,0-5.3-0.9-5.8c-0.9,0.4-1.9,0.9-2.8,1.4c-4.2,2.4-8.3,4.8-12.6,7
					c-3.9,2.1-8.1,3.7-12.7,4.5c-7.4,1.4-14.7,1-21.8-1.4c-4.1-1.4-7.9-3.2-11.8-5c-0.7-0.3-1.4-0.7-2.2-1c-0.1,1.9-0.2,4.4-0.2,7.8
					c1.4,0.3,2.8,0.7,4.1,1.1c2.7,0.9,5.3,2.1,7.9,3.3c5,2.3,10.3,3.6,15.9,3.8c5.8,0.2,11.3-0.8,16.5-3.2c2.9-1.3,5.4-3,8-4.6
					c3.8-2.4,7.8-4.6,12.2-6.3c0-0.3,0-0.5,0.1-0.8C250.4,316.6,250.4,316,250.4,315.7z"/>
			</g>
		</g>
	</g>
	<path class="st0" d="M300.3,161.5c-0.2-0.7-0.6-1.1-1.3-1.2c-1.3-0.2-2.5-0.4-3.8-0.6c-1.3-0.2-2.6-0.4-3.8-1
		c0.1-0.7,0.1-1.4,0.2-2c0.1-1.6,0.2-3.1,0.3-4.7c0-0.6-0.1-1.1-0.2-1.7c-0.4-1.2-1.5-1.6-2.5-0.9c-0.3,0.2-0.6,0.4-0.8,0.7
		c-1.6,1.6-3.2,3.3-4.8,4.9c-0.4,0.4-0.8,0.8-1.3,1.3c-0.4-0.3-0.7-0.6-1-0.9c-1.8-1.4-3.6-2.8-5.5-4.1c-0.6-0.5-1.5-0.7-2.2-1
		c-0.2-0.1-0.5-0.1-0.7-0.1c-1.1,0.2-1.7,1-1.3,2.2c0.6,1.8,1.3,3.6,1.9,5.4c0.2,0.6,0.4,1.2,0.2,1.9c-0.6,0.1-1.2,0.2-1.7,0.3
		c-1.8,0.4-3.7,0.7-5.5,1.1c-1.2,0.2-2.4,0.4-3.5,0.7c-0.7,0.1-1.2,0.5-1.3,1.3c-0.1,0.8,0.2,1.3,0.9,1.7c2.4,1.5,4.9,2.9,7.8,3.5
		c1,0.2,1.9,0.5,3.1,0.7c-0.9,0.6-1.7,1.1-2.4,1.6c-1.6,1-3.2,2.1-4.5,3.5c-0.3,0.3-0.6,0.7-0.8,1.1c-0.6,1.2,0,2.3,1.3,2.5
		c0.2,0,0.5,0,0.7,0c3.3-0.4,6.6-0.9,9.8-1.8c0.2-0.1,0.4-0.1,0.8-0.2c-0.1,0.5-0.1,0.9-0.2,1.2c-0.6,2.4-1.1,4.8-1.2,7.3
		c0,0.7,0,1.5,0.1,2.2c0.3,1.4,1.6,1.9,2.8,1.2c0.5-0.3,1-0.8,1.4-1.3c1.5-2,2.9-4.1,4.3-6.2c0.6-1,1.2-2,1.8-3.1
		c0.6,0.3,1.2,0.5,1.7,0.8c1.1,0.5,2.1,1,3.2,1.4c1.6,0.7,3.3,1,5.1,0.9c1.5-0.1,2.3-1.2,1.8-2.5c-1.5-3.6-3-7.2-5.7-10.1
		c-0.1-0.1-0.1-0.2-0.1-0.3c1.5-0.9,3-1.7,4.4-2.6c0.7-0.4,1.4-0.9,2.1-1.4C300.2,162.8,300.5,162.2,300.3,161.5z M282.6,170
		c-1.6-0.3-2.6-1.4-2.8-3.2c0-0.2,0-0.5-0.1-0.9c0-0.3,0.1-0.7,0.2-1.2c0.4-1.2,0.9-2.3,2.3-2.6c1.5-0.3,2.9,0.1,4,1.3
		c1.6,1.8,1,3.8-0.4,5.3C285,169.7,283.9,170.2,282.6,170z"/>
	<path class="st0" d="M170.1,137.7c-0.2-0.7-0.6-1.1-1.3-1.2c-1.3-0.2-2.5-0.4-3.8-0.6c-1.3-0.2-2.6-0.4-3.8-1
		c0.1-0.7,0.1-1.4,0.2-2c0.1-1.6,0.2-3.1,0.3-4.7c0-0.6-0.1-1.1-0.2-1.7c-0.4-1.2-1.5-1.6-2.5-0.9c-0.3,0.2-0.6,0.4-0.8,0.7
		c-1.6,1.6-3.2,3.3-4.8,4.9c-0.4,0.4-0.8,0.8-1.3,1.3c-0.4-0.3-0.7-0.6-1-0.9c-1.8-1.4-3.6-2.8-5.5-4.1c-0.6-0.5-1.5-0.7-2.2-1
		c-0.2-0.1-0.5-0.1-0.7-0.1c-1.1,0.2-1.7,1-1.3,2.2c0.6,1.8,1.3,3.6,1.9,5.4c0.2,0.6,0.4,1.2,0.2,1.9c-0.6,0.1-1.2,0.2-1.7,0.3
		c-1.8,0.4-3.7,0.7-5.5,1.1c-1.2,0.2-2.4,0.4-3.5,0.7c-0.7,0.1-1.2,0.5-1.3,1.3c-0.1,0.8,0.2,1.3,0.9,1.7c2.4,1.5,4.9,2.9,7.8,3.5
		c1,0.2,1.9,0.5,3.1,0.7c-0.9,0.6-1.7,1.1-2.4,1.6c-1.6,1-3.2,2.1-4.5,3.5c-0.3,0.3-0.6,0.7-0.8,1.1c-0.6,1.2,0,2.3,1.3,2.5
		c0.2,0,0.5,0,0.7,0c3.3-0.4,6.6-0.9,9.8-1.8c0.2-0.1,0.4-0.1,0.8-0.2c-0.1,0.5-0.1,0.9-0.2,1.2c-0.6,2.4-1.1,4.8-1.2,7.3
		c0,0.7,0,1.5,0.1,2.2c0.3,1.4,1.6,1.9,2.8,1.2c0.5-0.3,1-0.8,1.4-1.3c1.5-2,2.9-4.1,4.3-6.2c0.6-1,1.2-2,1.8-3.1
		c0.6,0.3,1.2,0.5,1.7,0.8c1.1,0.5,2.1,1,3.2,1.4c1.6,0.7,3.3,1,5.1,0.9c1.5-0.1,2.3-1.2,1.8-2.5c-1.5-3.6-3-7.2-5.7-10.1
		c-0.1-0.1-0.1-0.2-0.1-0.3c1.5-0.9,3-1.7,4.4-2.6c0.7-0.4,1.4-0.9,2.1-1.4C170,139,170.3,138.4,170.1,137.7z M152.4,146.2
		c-1.6-0.3-2.6-1.4-2.8-3.2c0-0.2,0-0.5-0.1-0.9c0-0.3,0.1-0.7,0.2-1.2c0.4-1.2,0.9-2.3,2.3-2.6c1.5-0.3,2.9,0.1,4,1.3
		c1.6,1.8,1,3.8-0.4,5.3C154.8,145.9,153.7,146.4,152.4,146.2z"/>
	<g>
		<g>
			<path class="st3" d="M269.8,147.6c-1-9.2-12.1-9.3-11.9-3.5c0,1.1,0.8,1.6,1.6,0.6c1.4-2,5.5,0.9,3.6,3.6c-1.4,2.1-5,2-7.3,1.1
				c-4.4-1.8-6.2-4.9-9.6-8.6c-6.2-6.6-17-5-17.8,0.1c-2.3,14.4,4.9,7,12.5,14C255.6,168.4,270.9,158,269.8,147.6z"/>
			<path class="st3" d="M215.8,135.8c-7.6-0.6-10.7,3.4-14.6,7.3c-8.7,8.7-16.9,2.7-13.2-0.7c2.9-2.7,3.3,0.7,4.4,0.4
				c1.2-0.3,0.9-3.9-1.9-4.9c-10.9-3.8-15.7,17.4,2.4,21.1c12.2,2.5,15.3-8.4,24.5-8.2c5.3,0.1,5.9-4.7,5.4-10
				C222.7,139.4,219,136.1,215.8,135.8z"/>
		</g>
		<g>
			<ellipse class="st3" cx="235.4" cy="125.5" rx="2.9" ry="2.8"/>
			<ellipse class="st3" cx="215.3" cy="125.5" rx="2.9" ry="2.8"/>
		</g>
	</g>
	<g>
		<path class="st4" d="M248.4,96.2c5.6-0.8,15.1-2.8,34.2-12.3c4.2,2.3,6.8,12.4,1.3,17.2c-10.6,9.3-35.3,14.5-52,15.7
			c-30.1,2.2-65.4-17.3-65.8-23.3c-0.5-2.8,0.7-6.2,1.7-8.8c0.1-0.3,0.3-0.5,0.5-0.7c9.4,4,22,8.7,31.7,11.5
			C207,67.6,241.8,43,248.4,96.2z"/>
		<g>
			<ellipse class="st0" cx="278.1" cy="95.1" rx="4" ry="4.3"/>
			
				<ellipse transform="matrix(6.058108e-02 -0.9982 0.9982 6.058108e-02 126.5336 349.3246)" class="st0" cx="248.9" cy="107.4" rx="4.3" ry="4"/>
			
				<ellipse transform="matrix(6.058827e-02 -0.9982 0.9982 6.058827e-02 90.2494 311.2442)" class="st0" cx="210.5" cy="107.7" rx="4.3" ry="4"/>
			
				<ellipse transform="matrix(6.058827e-02 -0.9982 0.9982 6.058827e-02 70.4785 265.3008)" class="st0" cx="176.2" cy="95.2" rx="4.3" ry="4"/>
		</g>
		<g>
			<path class="st0" d="M245.3,81.4C236.6,55,216.8,64,206,81.3C221.8,78.7,231,78.8,245.3,81.4z"/>
			<path class="st0" d="M248.4,96.2c-0.2-1.5-0.4-3-0.6-4.3c-1.2,0.3-31.6,4.3-46.5-0.9c-0.8,2.2-1.2,3.7-1.4,4.4
				C213.8,100.3,243.3,97.8,248.4,96.2z"/>
		</g>
		<g>
			<g>
				<ellipse class="st1" cx="264.5" cy="101" rx="4" ry="4.3"/>
				
					<ellipse transform="matrix(6.058827e-02 -0.9982 0.9982 6.058827e-02 108.2707 330.3926)" class="st1" cx="229.7" cy="107.7" rx="4.3" ry="4"/>
				
					<ellipse transform="matrix(6.058021e-02 -0.9982 0.9982 6.058021e-02 79.9837 287.9148)" class="st1" cx="193" cy="101.5" rx="4.3" ry="4"/>
			</g>
			<path class="st1" d="M224.5,91.5c5.5,0,11,0.1,16.5-0.3c2.1-0.2,4.4-0.3,6.6-0.7c-0.3-1.6-0.6-3.1-1-4.5
				c-3.4,0.7-7.2,0.7-10.2,0.8c-4.6,0.2-9.1,0.1-13.7,0c-4.7,0-9.5,0.1-14.2-0.8c-1.5-0.3-3-0.7-4.5-1.1c-0.7,1.4-1.4,2.8-2,4.3
				c2.3,0.7,4.5,1.3,6.9,1.7C214,91.6,219.3,91.5,224.5,91.5z"/>
		</g>
	</g>
</g>
</svg>
